<svg width="222" height="56" viewBox="0 0 222 56" fill="none" xmlns="http://www.w3.org/2000/svg">
<rect width="221.797" height="56" rx="28" fill="white"/>
<g clip-path="url(#clip0_1_92)">
<path d="M28.88 15.44C28.6337 15.2272 28.319 15.1101 27.9935 15.1101C27.668 15.1101 27.3533 15.2272 27.107 15.44C20.6 21.173 17.333 26.16 17.333 30.4C17.333 37.04 22.4 41.333 28 41.333C33.6 41.333 38.667 37.04 38.667 30.4C38.667 26.16 35.4 21.173 28.88 15.44ZM22.44 30.666C22.933 30.666 23.333 31.013 23.427 31.493C23.973 34.453 26.467 35.467 28.28 35.32C28.4156 35.3133 28.5512 35.3341 28.6785 35.3813C28.8058 35.4284 28.9222 35.501 29.0207 35.5945C29.1192 35.688 29.1976 35.8005 29.2513 35.9252C29.305 36.0499 29.3328 36.1842 29.333 36.32C29.333 36.853 28.907 37.293 28.373 37.32C25.533 37.493 22.213 35.866 21.453 31.826C21.347 31.226 21.827 30.666 22.44 30.666Z" fill="#224722"/>
</g>
<path d="M55.7429 34L52.3622 21.6364H53.8835L56.4673 31.706H56.5881L59.2202 21.6364H60.9105L63.5426 31.706H63.6634L66.2472 21.6364H67.7685L64.3878 34H62.8423L60.1136 24.1477H60.017L57.2884 34H55.7429ZM71.3061 34.2173C70.7185 34.2173 70.1853 34.1067 69.7063 33.8853C69.2274 33.6599 68.8471 33.3359 68.5653 32.9134C68.2836 32.4867 68.1428 31.9716 68.1428 31.3679C68.1428 30.8366 68.2474 30.406 68.4567 30.076C68.666 29.742 68.9457 29.4804 69.2958 29.2912C69.646 29.102 70.0323 28.9612 70.4549 28.8686C70.8815 28.772 71.3101 28.6955 71.7408 28.6392C72.3042 28.5668 72.761 28.5124 73.1112 28.4762C73.4653 28.436 73.7229 28.3696 73.8839 28.277C74.0489 28.1844 74.1314 28.0234 74.1314 27.794V27.7457C74.1314 27.1501 73.9684 26.6873 73.6424 26.3572C73.3204 26.0272 72.8314 25.8622 72.1754 25.8622C71.4953 25.8622 70.962 26.0111 70.5756 26.3089C70.1893 26.6068 69.9176 26.9247 69.7607 27.2628L68.4084 26.7798C68.6499 26.2164 68.9718 25.7777 69.3743 25.4638C69.7808 25.1458 70.2235 24.9245 70.7024 24.7997C71.1854 24.6709 71.6603 24.6065 72.1271 24.6065C72.425 24.6065 72.767 24.6428 73.1534 24.7152C73.5438 24.7836 73.9201 24.9265 74.2823 25.1438C74.6486 25.3612 74.9524 25.6892 75.1939 26.1278C75.4354 26.5665 75.5561 27.1541 75.5561 27.8906V34H74.1314V32.7443H74.0589C73.9624 32.9455 73.8014 33.1609 73.576 33.3903C73.3506 33.6197 73.0508 33.8149 72.6765 33.9759C72.3022 34.1368 71.8454 34.2173 71.3061 34.2173ZM71.5234 32.9375C72.0869 32.9375 72.5618 32.8268 72.9482 32.6055C73.3385 32.3841 73.6323 32.0984 73.8295 31.7482C74.0308 31.3981 74.1314 31.0298 74.1314 30.6435V29.3395C74.071 29.4119 73.9382 29.4783 73.733 29.5387C73.5317 29.5951 73.2983 29.6454 73.0327 29.6896C72.7711 29.7299 72.5155 29.7661 72.266 29.7983C72.0205 29.8265 71.8213 29.8506 71.6683 29.8707C71.2981 29.919 70.9519 29.9975 70.63 30.1062C70.312 30.2108 70.0545 30.3698 69.8572 30.5831C69.6641 30.7924 69.5675 31.0781 69.5675 31.4403C69.5675 31.9354 69.7506 32.3097 70.1168 32.5632C70.4871 32.8127 70.956 32.9375 71.5234 32.9375ZM82.1892 24.7273V25.9347H77.3838V24.7273H82.1892ZM78.7844 22.5057H80.2091V31.3438C80.2091 31.7462 80.2674 32.0481 80.3841 32.2493C80.5049 32.4465 80.6578 32.5793 80.843 32.6477C81.0321 32.7121 81.2313 32.7443 81.4406 32.7443C81.5976 32.7443 81.7264 32.7363 81.827 32.7202C81.9276 32.7 82.0081 32.6839 82.0684 32.6719L82.3582 33.9517C82.2616 33.9879 82.1268 34.0241 81.9537 34.0604C81.7807 34.1006 81.5613 34.1207 81.2957 34.1207C80.8933 34.1207 80.4988 34.0342 80.1125 33.8612C79.7301 33.6881 79.4122 33.4245 79.1586 33.0703C78.9091 32.7161 78.7844 32.2694 78.7844 31.7301V22.5057ZM88.1205 34.1932C87.227 34.1932 86.4563 33.996 85.8083 33.6016C85.1644 33.2031 84.6673 32.6477 84.3172 31.9354C83.9711 31.219 83.798 30.3859 83.798 29.4361C83.798 28.4863 83.9711 27.6491 84.3172 26.9247C84.6673 26.1963 85.1543 25.6288 85.7781 25.2223C86.406 24.8118 87.1385 24.6065 87.9756 24.6065C88.4585 24.6065 88.9355 24.687 89.4063 24.848C89.8772 25.009 90.3058 25.2706 90.6922 25.6328C91.0786 25.991 91.3865 26.4659 91.6159 27.0575C91.8453 27.6491 91.96 28.3776 91.96 29.2429V29.8466H84.8122V28.6151H90.5111C90.5111 28.0919 90.4065 27.625 90.1972 27.2145C89.9919 26.804 89.6981 26.48 89.3158 26.2425C88.9375 26.0051 88.4907 25.8864 87.9756 25.8864C87.4081 25.8864 86.9171 26.0272 86.5026 26.3089C86.0921 26.5866 85.7761 26.9489 85.5548 27.3956C85.3334 27.8423 85.2227 28.3213 85.2227 28.8324V29.6534C85.2227 30.3537 85.3435 30.9473 85.585 31.4343C85.8305 31.9173 86.1705 32.2855 86.6052 32.5391C87.0399 32.7886 87.545 32.9134 88.1205 32.9134C88.4948 32.9134 88.8328 32.861 89.1347 32.7564C89.4405 32.6477 89.7042 32.4867 89.9255 32.2734C90.1469 32.0561 90.3179 31.7865 90.4387 31.4645L91.8151 31.8509C91.6702 32.3177 91.4267 32.7282 91.0846 33.0824C90.7425 33.4325 90.3199 33.7062 89.8169 33.9034C89.3138 34.0966 88.7483 34.1932 88.1205 34.1932ZM94.1272 34V24.7273H95.5036V26.1278H95.6002C95.7693 25.669 96.0751 25.2968 96.5178 25.011C96.9606 24.7253 97.4596 24.5824 98.015 24.5824C98.1196 24.5824 98.2504 24.5844 98.4074 24.5884C98.5644 24.5924 98.6831 24.5985 98.7636 24.6065V26.0554C98.7153 26.0433 98.6046 26.0252 98.4316 26.0011C98.2625 25.9729 98.0834 25.9588 97.8943 25.9588C97.4435 25.9588 97.041 26.0534 96.6869 26.2425C96.3367 26.4277 96.059 26.6853 95.8538 27.0153C95.6526 27.3413 95.5519 27.7135 95.5519 28.1321V34H94.1272ZM109.266 24.7273V25.9347H104.461V24.7273H109.266ZM105.862 22.5057H107.286V31.3438C107.286 31.7462 107.345 32.0481 107.461 32.2493C107.582 32.4465 107.735 32.5793 107.92 32.6477C108.109 32.7121 108.308 32.7443 108.518 32.7443C108.675 32.7443 108.804 32.7363 108.904 32.7202C109.005 32.7 109.085 32.6839 109.146 32.6719L109.435 33.9517C109.339 33.9879 109.204 34.0241 109.031 34.0604C108.858 34.1006 108.638 34.1207 108.373 34.1207C107.97 34.1207 107.576 34.0342 107.19 33.8612C106.807 33.6881 106.489 33.4245 106.236 33.0703C105.986 32.7161 105.862 32.2694 105.862 31.7301V22.5057ZM113.51 34L110.685 24.7273H112.182L114.186 31.8267H114.283L116.263 24.7273H117.784L119.74 31.8026H119.837L121.841 24.7273H123.338L120.513 34H119.113L117.084 26.8764H116.939L114.911 34H113.51ZM125.222 34V24.7273H126.647V34H125.222ZM125.946 23.1818C125.669 23.1818 125.429 23.0872 125.228 22.8981C125.031 22.7089 124.932 22.4815 124.932 22.2159C124.932 21.9503 125.031 21.7229 125.228 21.5337C125.429 21.3446 125.669 21.25 125.946 21.25C126.224 21.25 126.462 21.3446 126.659 21.5337C126.86 21.7229 126.961 21.9503 126.961 22.2159C126.961 22.4815 126.86 22.7089 126.659 22.8981C126.462 23.0872 126.224 23.1818 125.946 23.1818ZM133.023 34.1932C132.154 34.1932 131.405 33.9879 130.777 33.5774C130.15 33.1669 129.667 32.6014 129.329 31.881C128.991 31.1606 128.821 30.3376 128.821 29.4119C128.821 28.4702 128.995 27.6391 129.341 26.9187C129.691 26.1942 130.178 25.6288 130.802 25.2223C131.429 24.8118 132.162 24.6065 132.999 24.6065C133.651 24.6065 134.239 24.7273 134.762 24.9688C135.285 25.2102 135.714 25.5483 136.048 25.983C136.382 26.4176 136.589 26.9247 136.669 27.5043H135.245C135.136 27.0817 134.895 26.7074 134.52 26.3814C134.15 26.0514 133.651 25.8864 133.023 25.8864C132.468 25.8864 131.981 26.0312 131.562 26.321C131.148 26.6068 130.824 27.0112 130.59 27.5344C130.361 28.0536 130.246 28.6634 130.246 29.3636C130.246 30.08 130.359 30.7038 130.584 31.2351C130.814 31.7663 131.136 32.1789 131.55 32.4727C131.969 32.7665 132.46 32.9134 133.023 32.9134C133.393 32.9134 133.729 32.849 134.031 32.7202C134.333 32.5914 134.589 32.4062 134.798 32.1648C135.007 31.9233 135.156 31.6335 135.245 31.2955H136.669C136.589 31.8428 136.39 32.3358 136.072 32.7745C135.758 33.2092 135.341 33.5553 134.822 33.8129C134.307 34.0664 133.707 34.1932 133.023 34.1932ZM142.64 34.1932C141.747 34.1932 140.976 33.996 140.328 33.6016C139.684 33.2031 139.187 32.6477 138.837 31.9354C138.491 31.219 138.318 30.3859 138.318 29.4361C138.318 28.4863 138.491 27.6491 138.837 26.9247C139.187 26.1963 139.674 25.6288 140.298 25.2223C140.926 24.8118 141.658 24.6065 142.495 24.6065C142.978 24.6065 143.455 24.687 143.926 24.848C144.397 25.009 144.825 25.2706 145.212 25.6328C145.598 25.991 145.906 26.4659 146.135 27.0575C146.365 27.6491 146.479 28.3776 146.479 29.2429V29.8466H139.332V28.6151H145.031C145.031 28.0919 144.926 27.625 144.717 27.2145C144.511 26.804 144.218 26.48 143.835 26.2425C143.457 26.0051 143.01 25.8864 142.495 25.8864C141.928 25.8864 141.437 26.0272 141.022 26.3089C140.612 26.5866 140.296 26.9489 140.074 27.3956C139.853 27.8423 139.742 28.3213 139.742 28.8324V29.6534C139.742 30.3537 139.863 30.9473 140.104 31.4343C140.35 31.9173 140.69 32.2855 141.125 32.5391C141.559 32.7886 142.064 32.9134 142.64 32.9134C143.014 32.9134 143.352 32.861 143.654 32.7564C143.96 32.6477 144.224 32.4867 144.445 32.2734C144.666 32.0561 144.837 31.7865 144.958 31.4645L146.335 31.8509C146.19 32.3177 145.946 32.7282 145.604 33.0824C145.262 33.4325 144.839 33.7062 144.336 33.9034C143.833 34.0966 143.268 34.1932 142.64 34.1932ZM156.157 34.2173C155.569 34.2173 155.036 34.1067 154.557 33.8853C154.078 33.6599 153.698 33.3359 153.416 32.9134C153.134 32.4867 152.993 31.9716 152.993 31.3679C152.993 30.8366 153.098 30.406 153.307 30.076C153.517 29.742 153.796 29.4804 154.146 29.2912C154.497 29.102 154.883 28.9612 155.305 28.8686C155.732 28.772 156.161 28.6955 156.591 28.6392C157.155 28.5668 157.612 28.5124 157.962 28.4762C158.316 28.436 158.573 28.3696 158.734 28.277C158.899 28.1844 158.982 28.0234 158.982 27.794V27.7457C158.982 27.1501 158.819 26.6873 158.493 26.3572C158.171 26.0272 157.682 25.8622 157.026 25.8622C156.346 25.8622 155.813 26.0111 155.426 26.3089C155.04 26.6068 154.768 26.9247 154.611 27.2628L153.259 26.7798C153.5 26.2164 153.822 25.7777 154.225 25.4638C154.631 25.1458 155.074 24.9245 155.553 24.7997C156.036 24.6709 156.511 24.6065 156.978 24.6065C157.276 24.6065 157.618 24.6428 158.004 24.7152C158.394 24.7836 158.771 24.9265 159.133 25.1438C159.499 25.3612 159.803 25.6892 160.044 26.1278C160.286 26.5665 160.407 27.1541 160.407 27.8906V34H158.982V32.7443H158.91C158.813 32.9455 158.652 33.1609 158.427 33.3903C158.201 33.6197 157.901 33.8149 157.527 33.9759C157.153 34.1368 156.696 34.2173 156.157 34.2173ZM156.374 32.9375C156.937 32.9375 157.412 32.8268 157.799 32.6055C158.189 32.3841 158.483 32.0984 158.68 31.7482C158.881 31.3981 158.982 31.0298 158.982 30.6435V29.3395C158.922 29.4119 158.789 29.4783 158.584 29.5387C158.382 29.5951 158.149 29.6454 157.883 29.6896C157.622 29.7299 157.366 29.7661 157.117 29.7983C156.871 29.8265 156.672 29.8506 156.519 29.8707C156.149 29.919 155.803 29.9975 155.481 30.1062C155.163 30.2108 154.905 30.3698 154.708 30.5831C154.515 30.7924 154.418 31.0781 154.418 31.4403C154.418 31.9354 154.601 32.3097 154.967 32.5632C155.338 32.8127 155.807 32.9375 156.374 32.9375ZM169.889 34L167.064 24.7273H168.561L170.565 31.8267H170.662L172.642 24.7273H174.163L176.119 31.8026H176.216L178.22 24.7273H179.717L176.892 34H175.491L173.463 26.8764H173.318L171.29 34H169.889ZM185.173 34.1932C184.28 34.1932 183.509 33.996 182.861 33.6016C182.217 33.2031 181.72 32.6477 181.37 31.9354C181.024 31.219 180.851 30.3859 180.851 29.4361C180.851 28.4863 181.024 27.6491 181.37 26.9247C181.72 26.1963 182.207 25.6288 182.831 25.2223C183.459 24.8118 184.191 24.6065 185.028 24.6065C185.511 24.6065 185.988 24.687 186.459 24.848C186.93 25.009 187.359 25.2706 187.745 25.6328C188.131 25.991 188.439 26.4659 188.669 27.0575C188.898 27.6491 189.013 28.3776 189.013 29.2429V29.8466H181.865V28.6151H187.564C187.564 28.0919 187.459 27.625 187.25 27.2145C187.045 26.804 186.751 26.48 186.369 26.2425C185.99 26.0051 185.543 25.8864 185.028 25.8864C184.461 25.8864 183.97 26.0272 183.555 26.3089C183.145 26.5866 182.829 26.9489 182.608 27.3956C182.386 27.8423 182.275 28.3213 182.275 28.8324V29.6534C182.275 30.3537 182.396 30.9473 182.638 31.4343C182.883 31.9173 183.223 32.2855 183.658 32.5391C184.093 32.7886 184.598 32.9134 185.173 32.9134C185.547 32.9134 185.886 32.861 186.187 32.7564C186.493 32.6477 186.757 32.4867 186.978 32.2734C187.2 32.0561 187.371 31.7865 187.491 31.4645L188.868 31.8509C188.723 32.3177 188.479 32.7282 188.137 33.0824C187.795 33.4325 187.373 33.7062 186.87 33.9034C186.367 34.0966 185.801 34.1932 185.173 34.1932ZM195.068 34.1932C194.174 34.1932 193.404 33.996 192.756 33.6016C192.112 33.2031 191.615 32.6477 191.264 31.9354C190.918 31.219 190.745 30.3859 190.745 29.4361C190.745 28.4863 190.918 27.6491 191.264 26.9247C191.615 26.1963 192.102 25.6288 192.725 25.2223C193.353 24.8118 194.086 24.6065 194.923 24.6065C195.406 24.6065 195.883 24.687 196.354 24.848C196.824 25.009 197.253 25.2706 197.639 25.6328C198.026 25.991 198.334 26.4659 198.563 27.0575C198.793 27.6491 198.907 28.3776 198.907 29.2429V29.8466H191.759V28.6151H197.458C197.458 28.0919 197.354 27.625 197.144 27.2145C196.939 26.804 196.645 26.48 196.263 26.2425C195.885 26.0051 195.438 25.8864 194.923 25.8864C194.355 25.8864 193.864 26.0272 193.45 26.3089C193.039 26.5866 192.723 26.9489 192.502 27.3956C192.281 27.8423 192.17 28.3213 192.17 28.8324V29.6534C192.17 30.3537 192.291 30.9473 192.532 31.4343C192.778 31.9173 193.118 32.2855 193.552 32.5391C193.987 32.7886 194.492 32.9134 195.068 32.9134C195.442 32.9134 195.78 32.861 196.082 32.7564C196.388 32.6477 196.651 32.4867 196.873 32.2734C197.094 32.0561 197.265 31.7865 197.386 31.4645L198.762 31.8509C198.617 32.3177 198.374 32.7282 198.032 33.0824C197.69 33.4325 197.267 33.7062 196.764 33.9034C196.261 34.0966 195.696 34.1932 195.068 34.1932ZM202.403 30.6193L202.378 28.8565H202.668L206.725 24.7273H208.488L204.165 29.098H204.045L202.403 30.6193ZM201.074 34V21.6364H202.499V34H201.074ZM206.967 34L203.344 29.4119L204.359 28.4219L208.778 34H206.967Z" fill="#224722"/>
<defs>
<clipPath id="clip0_1_92">
<rect width="32" height="32" fill="white" transform="translate(12 12)"/>
</clipPath>
</defs>
</svg>
