<svg width="156" height="46" viewBox="0 0 156 46" fill="none" xmlns="http://www.w3.org/2000/svg">
<g clip-path="url(#clip0_1_23)">
<path d="M150.222 0.902616C152.897 0.902616 155.074 3.02497 155.074 5.63321V39.4332C155.074 42.0415 152.897 44.1638 150.222 44.1638H5.77778C3.10267 44.1638 0.925889 42.0415 0.925889 39.4332V5.63321C0.925889 3.02497 3.10267 0.902616 5.77778 0.902616H150.222ZM150.222 -0.00012207H5.77778C2.60145 -0.00012207 0 2.53628 0 5.63321V39.4332C0 42.5302 2.60145 45.0665 5.77778 45.0665H150.222C153.399 45.0665 156 42.5302 156 39.4332V5.63321C156 2.53628 153.399 -0.00012207 150.222 -0.00012207Z" fill="#224722"/>
<path d="M34.8154 22.2899C34.7818 18.6587 37.8648 16.8921 38.0058 16.8099C36.2597 14.3279 33.5535 13.9888 32.6024 13.9616C30.3295 13.7284 28.1247 15.2878 26.9668 15.2878C25.7858 15.2878 24.0028 13.9842 22.0811 14.0226C19.6082 14.0597 17.2948 15.4557 16.026 17.6233C13.4075 22.0432 15.3604 28.5385 17.8691 32.1111C19.124 33.8608 20.5904 35.8145 22.5098 35.7458C24.3876 35.6703 25.089 34.5785 27.3551 34.5785C29.6003 34.5785 30.2589 35.7458 32.2165 35.7019C34.2317 35.6703 35.5005 33.9443 36.7116 32.1787C38.1618 30.1733 38.7442 28.1983 38.7674 28.0969C38.7199 28.081 34.8535 26.6423 34.8154 22.2899Z" fill="#224722"/>
<path d="M31.1175 11.6115C32.1275 10.38 32.8186 8.70466 32.6267 7.00452C31.165 7.06761 29.3368 7.99035 28.2842 9.19476C27.3527 10.2561 26.5207 11.9957 26.7357 13.6316C28.3778 13.7511 30.0637 12.8237 31.1175 11.6115Z" fill="#224722"/>
<path d="M61.9894 35.4942H59.3652L57.9276 31.09H52.931L51.5617 35.4942H49.0068L53.9572 20.5005H57.0148L61.9894 35.4942ZM57.4943 29.2423L56.1943 25.3271C56.0569 24.9272 55.7991 23.9852 55.419 22.5026H55.3727C55.2214 23.1402 54.9775 24.0822 54.6425 25.3271L53.3655 29.2423H57.4943Z" fill="#224722"/>
<path d="M74.72 29.9556C74.72 31.7943 74.2104 33.2477 73.1912 34.3147C72.2783 35.2644 71.1447 35.7387 69.7916 35.7387C68.331 35.7387 67.2817 35.2273 66.6427 34.2043H66.5964V39.8996H64.1328V28.242C64.1328 27.0859 64.1016 25.8996 64.0415 24.6828H66.2081L66.3457 26.3965H66.3919C67.2135 25.1054 68.4604 24.4608 70.1336 24.4608C71.4417 24.4608 72.5337 24.9645 73.4073 25.9729C74.2832 26.9823 74.72 28.3096 74.72 29.9556ZM72.2102 30.0435C72.2102 28.9911 71.9675 28.1236 71.4798 27.4409C70.9471 26.7289 70.2318 26.3728 69.3351 26.3728C68.7273 26.3728 68.175 26.5711 67.6815 26.962C67.187 27.3563 66.8633 27.8713 66.712 28.509C66.6358 28.8064 66.5976 29.0498 66.5976 29.2413V31.044C66.5976 31.8303 66.8449 32.4939 67.3395 33.0359C67.834 33.5779 68.4766 33.8483 69.267 33.8483C70.1948 33.8483 70.9171 33.499 71.4336 32.8027C71.9513 32.1053 72.2102 31.1859 72.2102 30.0435Z" fill="#224722"/>
<path d="M87.4734 29.9556C87.4734 31.7943 86.9638 33.2477 85.9435 34.3147C85.0318 35.2644 83.8982 35.7387 82.5449 35.7387C81.0843 35.7387 80.0351 35.2273 79.3972 34.2043H79.351V39.8996H76.8873V28.242C76.8873 27.0859 76.8561 25.8996 76.7961 24.6828H78.9627L79.1003 26.3965H79.1465C79.967 25.1054 81.2137 24.4608 82.8881 24.4608C84.1951 24.4608 85.2871 24.9645 86.163 25.9729C87.0355 26.9823 87.4734 28.3096 87.4734 29.9556ZM84.9635 30.0435C84.9635 28.9911 84.7198 28.1236 84.2321 27.4409C83.6993 26.7289 82.9864 26.3728 82.0886 26.3728C81.4795 26.3728 80.9283 26.5711 80.4337 26.962C79.9392 27.3563 79.6168 27.8713 79.4654 28.509C79.3903 28.8064 79.351 29.0498 79.351 29.2413V31.044C79.351 31.8303 79.5983 32.4939 80.0905 33.0359C80.5851 33.5767 81.2276 33.8483 82.0203 33.8483C82.9483 33.8483 83.6705 33.499 84.187 32.8027C84.7047 32.1053 84.9635 31.1859 84.9635 30.0435Z" fill="#224722"/>
<path d="M101.733 31.2898C101.733 32.5651 101.279 33.6028 100.367 34.4038C99.3654 35.2793 97.9707 35.7165 96.1785 35.7165C94.5236 35.7165 93.1971 35.4055 92.1929 34.7824L92.7638 32.7803C93.8454 33.4181 95.0321 33.738 96.3252 33.738C97.2531 33.738 97.9753 33.533 98.4942 33.1251C99.0107 32.7172 99.2684 32.1697 99.2684 31.4869C99.2684 30.8785 99.0558 30.3659 98.6294 29.9502C98.2052 29.5344 97.4969 29.148 96.5078 28.7908C93.8153 27.8117 92.4702 26.3775 92.4702 24.4914C92.4702 23.2589 92.9417 22.2482 93.8858 21.4618C94.8265 20.6742 96.0814 20.2811 97.6505 20.2811C99.05 20.2811 100.212 20.5188 101.14 20.9932L100.524 22.9513C99.6578 22.4916 98.6779 22.2617 97.5812 22.2617C96.7145 22.2617 96.0374 22.4702 95.5521 22.8848C95.1419 23.2555 94.9361 23.7073 94.9361 24.2424C94.9361 24.8351 95.1708 25.3251 95.6422 25.7104C96.0524 26.0665 96.7977 26.4518 97.8793 26.8675C99.2025 27.3869 100.174 27.9942 100.8 28.6905C101.422 29.3846 101.733 30.2532 101.733 31.2898Z" fill="#224722"/>
<path d="M109.879 26.4855H107.164V31.7346C107.164 33.0697 107.642 33.7366 108.601 33.7366C109.041 33.7366 109.407 33.6995 109.695 33.6251L109.764 35.4492C109.278 35.6261 108.639 35.7151 107.848 35.7151C106.875 35.7151 106.114 35.4255 105.566 34.8476C105.019 34.2684 104.744 33.2972 104.744 31.9328V26.4831H103.126V24.6804H104.744V22.701L107.164 21.989V24.6804H109.879V26.4855Z" fill="#224722"/>
<path d="M122.131 29.9997C122.131 31.6614 121.643 33.0258 120.67 34.0928C119.65 35.1912 118.296 35.7389 116.607 35.7389C114.98 35.7389 113.685 35.2127 112.719 34.1604C111.753 33.1082 111.27 31.7798 111.27 30.1788C111.27 28.5034 111.767 27.1311 112.764 26.0641C113.759 24.9962 115.102 24.462 116.79 24.462C118.417 24.462 119.726 24.9882 120.714 26.0416C121.659 27.0635 122.131 28.3828 122.131 29.9997ZM119.575 30.0774C119.575 29.0803 119.356 28.2251 118.914 27.512C118.397 26.6489 117.659 26.2185 116.702 26.2185C115.712 26.2185 114.959 26.65 114.443 27.512C114 28.2262 113.782 29.0949 113.782 30.1225C113.782 31.1195 114 31.9747 114.443 32.6867C114.976 33.5498 115.72 33.9801 116.68 33.9801C117.621 33.9801 118.359 33.5407 118.892 32.6642C119.346 31.9375 119.575 31.0733 119.575 30.0774Z" fill="#224722"/>
<path d="M130.14 26.7954C129.896 26.7514 129.636 26.7289 129.364 26.7289C128.497 26.7289 127.826 27.0477 127.354 27.6865C126.944 28.2499 126.739 28.9619 126.739 29.8215V35.4944H124.276L124.3 28.0876C124.3 26.8415 124.269 25.707 124.207 24.6839H126.353L126.443 26.7525H126.511C126.771 26.0416 127.181 25.4692 127.743 25.04C128.291 24.6535 128.884 24.4608 129.523 24.4608C129.751 24.4608 129.957 24.4767 130.14 24.5048V26.7954Z" fill="#224722"/>
<path d="M141.158 29.5771C141.158 30.0075 141.128 30.3702 141.067 30.6665H133.676C133.706 31.7346 134.062 32.5515 134.749 33.1148C135.372 33.6184 136.177 33.8708 137.166 33.8708C138.261 33.8708 139.258 33.7007 140.157 33.3592L140.542 35.0267C139.494 35.4729 138.254 35.6949 136.826 35.6949C135.106 35.6949 133.756 35.2014 132.775 34.2155C131.794 33.2297 131.302 31.9058 131.302 30.2452C131.302 28.6149 131.759 27.2573 132.673 26.1746C133.63 25.0186 134.923 24.4406 136.551 24.4406C138.148 24.4406 139.359 25.0186 140.18 26.1746C140.831 27.0927 141.158 28.2284 141.158 29.5771ZM138.808 28.954C138.824 28.2419 138.664 27.6269 138.33 27.1073C137.904 26.4393 137.248 26.1059 136.366 26.1059C135.562 26.1059 134.907 26.4313 134.405 27.0848C133.995 27.6043 133.751 28.2273 133.676 28.9529H138.808V28.954Z" fill="#224722"/>
<path d="M56.6801 11.2767C56.6801 12.6027 56.2723 13.601 55.4576 14.2713C54.703 14.8898 53.6307 15.1997 52.2417 15.1997C51.5529 15.1997 50.9636 15.1704 50.4702 15.1118V7.86624C51.1139 7.76484 51.8072 7.71301 52.556 7.71301C53.8791 7.71301 54.8763 7.99355 55.5489 8.55463C56.3023 9.18895 56.6801 10.0959 56.6801 11.2767ZM55.4033 11.3093C55.4033 10.4497 55.1699 9.79059 54.703 9.33091C54.2361 8.87235 53.5544 8.64251 52.6566 8.64251C52.2752 8.64251 51.9505 8.6673 51.6812 8.71913V14.2274C51.8303 14.25 52.103 14.26 52.4993 14.26C53.4262 14.26 54.1414 14.0088 54.6452 13.5064C55.1491 13.0038 55.4033 12.2715 55.4033 11.3093Z" fill="#224722"/>
<path d="M63.4513 12.4347C63.4513 13.2516 63.2121 13.9208 62.7337 14.4459C62.2322 14.9856 61.5677 15.2547 60.7381 15.2547C59.9384 15.2547 59.3017 14.9968 58.8267 14.4786C58.353 13.9614 58.1161 13.3091 58.1161 12.5226C58.1161 11.7002 58.36 11.0253 58.8499 10.5014C59.3398 9.97748 59.9985 9.71497 60.8282 9.71497C61.6278 9.71497 62.2704 9.97297 62.7568 10.4901C63.219 10.9926 63.4513 11.6416 63.4513 12.4347ZM62.1952 12.4731C62.1952 11.9829 62.0866 11.5627 61.8705 11.2123C61.6163 10.7887 61.2546 10.5769 60.7843 10.5769C60.2978 10.5769 59.928 10.7887 59.6738 11.2123C59.4565 11.5627 59.3491 11.9897 59.3491 12.4944C59.3491 12.9846 59.4577 13.4048 59.6738 13.7551C59.9361 14.1788 60.3013 14.3907 60.7728 14.3907C61.2349 14.3907 61.5978 14.1755 61.8589 13.7439C62.0832 13.3868 62.1952 12.9631 62.1952 12.4731Z" fill="#224722"/>
<path d="M72.5288 9.82349L70.8244 15.1346H69.715L69.0089 12.8283C68.8299 12.2526 68.6843 11.6802 68.571 11.1124H68.5491C68.4439 11.696 68.2983 12.2672 68.1111 12.8283L67.3612 15.1346H66.2391L64.6364 9.82349H65.8809L66.4968 12.3483C66.6459 12.9454 66.7684 13.5145 66.8665 14.053H66.8886C66.9787 13.609 67.1278 13.0435 67.338 12.3596L68.1111 9.82461H69.098L69.8387 12.3055C70.0177 12.9105 70.1633 13.493 70.2755 14.0541H70.3089C70.391 13.5076 70.5147 12.9252 70.6788 12.3055L71.3398 9.82461H72.5288V9.82349Z" fill="#224722"/>
<path d="M78.8075 15.1342H77.5964V12.0923C77.5964 11.1549 77.2313 10.6862 76.4987 10.6862C76.1393 10.6862 75.8492 10.8146 75.624 11.0726C75.4009 11.3306 75.2877 11.6348 75.2877 11.983V15.1331H74.0766V11.3408C74.0766 10.8743 74.0616 10.3685 74.0328 9.8209H75.097L75.1536 10.6512H75.1872C75.3281 10.3932 75.5384 10.1803 75.8146 10.0102C76.1427 9.81188 76.5102 9.71161 76.9123 9.71161C77.4208 9.71161 77.8438 9.8716 78.18 10.1927C78.5983 10.5859 78.8075 11.1729 78.8075 11.9526V15.1342Z" fill="#224722"/>
<path d="M82.147 15.1343H80.9371V7.38623H82.147V15.1343Z" fill="#224722"/>
<path d="M89.2755 12.4347C89.2755 13.2516 89.0362 13.9208 88.5578 14.4459C88.0563 14.9856 87.3907 15.2547 86.5622 15.2547C85.7614 15.2547 85.1246 14.9968 84.6508 14.4786C84.1771 13.9614 83.9402 13.3091 83.9402 12.5226C83.9402 11.7002 84.184 11.0253 84.6739 10.5014C85.164 9.97748 85.8227 9.71497 86.6512 9.71497C87.452 9.71497 88.0933 9.97297 88.5809 10.4901C89.0432 10.9926 89.2755 11.6416 89.2755 12.4347ZM88.0182 12.4731C88.0182 11.9829 87.9096 11.5627 87.6934 11.2123C87.4403 10.7887 87.0775 10.5769 86.6083 10.5769C86.1207 10.5769 85.751 10.7887 85.4979 11.2123C85.2806 11.5627 85.1731 11.9897 85.1731 12.4944C85.1731 12.9846 85.2818 13.4048 85.4979 13.7551C85.7602 14.1788 86.1254 14.3907 86.5968 14.3907C87.059 14.3907 87.4208 14.1755 87.6819 13.7439C87.9072 13.3868 88.0182 12.9631 88.0182 12.4731Z" fill="#224722"/>
<path d="M95.1372 15.1343H94.0498L93.9597 14.5224H93.9262C93.5541 15.0103 93.0237 15.2547 92.335 15.2547C91.8207 15.2547 91.4047 15.0936 91.0916 14.7737C90.8074 14.483 90.6652 14.1214 90.6652 13.6921C90.6652 13.0431 90.9426 12.5485 91.5007 12.206C92.0577 11.8635 92.8412 11.6956 93.85 11.7035V11.6044C93.85 10.9047 93.4732 10.5555 92.7186 10.5555C92.1813 10.5555 91.7076 10.6873 91.2985 10.9487L91.0524 10.1735C91.5585 9.86819 92.1836 9.71497 92.9209 9.71497C94.3445 9.71497 95.0586 10.4473 95.0586 11.912V13.8678C95.0586 14.3985 95.0852 14.821 95.1372 15.1343ZM93.8799 13.3091V12.4899C92.5442 12.4674 91.8762 12.8246 91.8762 13.5603C91.8762 13.8375 91.9525 14.0447 92.1085 14.1833C92.2645 14.3219 92.4633 14.3907 92.7002 14.3907C92.966 14.3907 93.2143 14.3083 93.4409 14.145C93.6685 13.9805 93.8084 13.7721 93.8604 13.5163C93.873 13.4589 93.8799 13.389 93.8799 13.3091Z" fill="#224722"/>
<path d="M102.018 15.1343H100.944L100.887 14.2814H100.853C100.51 14.9304 99.9255 15.2549 99.1039 15.2549C98.4475 15.2549 97.901 15.0036 97.4677 14.5012C97.0343 13.9986 96.8182 13.3463 96.8182 12.5452C96.8182 11.6856 97.0528 10.9893 97.5243 10.4575C97.9807 9.96179 98.54 9.71392 99.2056 9.71392C99.9371 9.71392 100.449 9.9539 100.74 10.435H100.763V7.38623H101.975V13.7035C101.975 14.2206 101.989 14.6972 102.018 15.1343ZM100.763 12.8945V12.0089C100.763 11.8557 100.752 11.7318 100.73 11.6371C100.662 11.3532 100.515 11.1144 100.292 10.9217C100.066 10.7291 99.7949 10.6322 99.4818 10.6322C99.0299 10.6322 98.6763 10.8068 98.4163 11.1572C98.1587 11.5076 98.028 11.9549 98.028 12.5013C98.028 13.0263 98.1517 13.4523 98.4002 13.7801C98.6624 14.1294 99.016 14.3039 99.4587 14.3039C99.8562 14.3039 100.174 14.1586 100.415 13.8668C100.649 13.5975 100.763 13.2731 100.763 12.8945Z" fill="#224722"/>
<path d="M112.376 12.4347C112.376 13.2516 112.137 13.9208 111.658 14.4459C111.157 14.9856 110.493 15.2547 109.662 15.2547C108.864 15.2547 108.227 14.9968 107.751 14.4786C107.277 13.9614 107.041 13.3091 107.041 12.5226C107.041 11.7002 107.284 11.0253 107.774 10.5014C108.264 9.97748 108.923 9.71497 109.754 9.71497C110.552 9.71497 111.196 9.97297 111.681 10.4901C112.143 10.9926 112.376 11.6416 112.376 12.4347ZM111.121 12.4731C111.121 11.9829 111.012 11.5627 110.796 11.2123C110.541 10.7887 110.18 10.5769 109.709 10.5769C109.223 10.5769 108.854 10.7887 108.598 11.2123C108.381 11.5627 108.274 11.9897 108.274 12.4944C108.274 12.9846 108.382 13.4048 108.598 13.7551C108.861 14.1788 109.226 14.3907 109.697 14.3907C110.159 14.3907 110.523 14.1755 110.785 13.7439C111.008 13.3868 111.121 12.9631 111.121 12.4731Z" fill="#224722"/>
<path d="M118.888 15.1342H117.678V12.0923C117.678 11.1549 117.313 10.6862 116.579 10.6862C116.22 10.6862 115.93 10.8146 115.705 11.0726C115.481 11.3306 115.369 11.6348 115.369 11.983V15.1331H114.157V11.3408C114.157 10.8743 114.143 10.3685 114.114 9.8209H115.177L115.234 10.6512H115.268C115.41 10.3932 115.62 10.1803 115.895 10.0102C116.224 9.81188 116.591 9.71161 116.994 9.71161C117.501 9.71161 117.924 9.8716 118.26 10.1927C118.68 10.5859 118.888 11.1729 118.888 11.9526V15.1342Z" fill="#224722"/>
<path d="M127.038 10.7076H125.705V13.2876C125.705 13.9433 125.942 14.2712 126.411 14.2712C126.627 14.2712 126.808 14.2532 126.951 14.2161L126.982 15.1117C126.743 15.1996 126.428 15.2436 126.041 15.2436C125.563 15.2436 125.19 15.1016 124.921 14.8177C124.65 14.5338 124.516 14.056 124.516 13.3857V10.7076H123.72V9.82313H124.516V8.84969L125.704 8.50043V9.82201H127.037V10.7076H127.038Z" fill="#224722"/>
<path d="M133.448 15.1343H132.236V12.1149C132.236 11.1628 131.871 10.6862 131.139 10.6862C130.578 10.6862 130.194 10.9623 129.984 11.5143C129.948 11.6304 129.927 11.7723 129.927 11.9391V15.1332H128.717V7.38623H129.927V10.5871H129.95C130.332 10.0046 130.878 9.71392 131.586 9.71392C132.089 9.71392 132.503 9.87391 132.833 10.195C133.243 10.595 133.448 11.1899 133.448 11.9763V15.1343Z" fill="#224722"/>
<path d="M140.062 12.2276C140.062 12.4394 140.046 12.6174 140.017 12.7628H136.385C136.401 13.2877 136.574 13.6878 136.911 13.9648C137.218 14.2127 137.614 14.3366 138.1 14.3366C138.637 14.3366 139.127 14.2533 139.568 14.0854L139.757 14.9057C139.241 15.1242 138.633 15.2335 137.93 15.2335C137.087 15.2335 136.422 14.9912 135.942 14.5068C135.459 14.0223 135.219 13.3723 135.219 12.5565C135.219 11.7555 135.441 11.0885 135.892 10.5567C136.36 9.98888 136.995 9.70496 137.796 9.70496C138.579 9.70496 139.174 9.98888 139.577 10.5567C139.901 11.0074 140.062 11.5651 140.062 12.2276ZM138.907 11.9222C138.916 11.5718 138.836 11.2699 138.672 11.0153C138.461 10.6874 138.142 10.5229 137.708 10.5229C137.313 10.5229 136.99 10.6829 136.744 11.004C136.543 11.2598 136.424 11.5651 136.385 11.9222H138.907Z" fill="#224722"/>
</g>
<defs>
<clipPath id="clip0_1_23">
<rect width="156" height="45.8095" fill="white"/>
</clipPath>
</defs>
</svg>
