<svg width="156" height="46" viewBox="0 0 156 46" fill="none" xmlns="http://www.w3.org/2000/svg">
<path d="M150.222 0.902616C152.897 0.902616 155.074 3.02497 155.074 5.63321V39.4332C155.074 42.0415 152.897 44.1638 150.222 44.1638H5.77778C3.10267 44.1638 0.925889 42.0415 0.925889 39.4332V5.63321C0.925889 3.02497 3.10267 0.902616 5.77778 0.902616H150.222ZM150.222 -0.00012207H5.77778C2.60145 -0.00012207 0 2.53628 0 5.63321V39.4332C0 42.5302 2.60145 45.0665 5.77778 45.0665H150.222C153.399 45.0665 156 42.5302 156 39.4332V5.63321C156 2.53628 153.399 -0.00012207 150.222 -0.00012207Z" fill="#224722"/>
</svg>
