<svg width="17" height="22" viewBox="0 0 17 22" fill="none" xmlns="http://www.w3.org/2000/svg">
<path d="M8.752 5.077C9.695 5.077 10.877 4.406 11.582 3.51C12.219 2.7 12.684 1.566 12.684 0.434C12.684 0.28 12.67 0.126 12.644 0C11.594 0.042 10.333 0.741 9.576 1.678C8.978 2.392 8.434 3.51 8.434 4.658C8.434 4.825 8.46 4.993 8.474 5.048C8.54 5.063 8.646 5.077 8.752 5.077ZM5.432 22C6.72 22 7.292 21.09 8.898 21.09C10.532 21.09 10.891 21.972 12.325 21.972C13.733 21.972 14.675 20.602 15.565 19.259C16.562 17.72 16.973 16.209 17 16.139C16.907 16.112 14.21 14.951 14.21 11.692C14.21 8.867 16.336 7.594 16.455 7.496C15.048 5.371 12.909 5.315 12.325 5.315C10.745 5.315 9.456 6.322 8.646 6.322C7.769 6.322 6.614 5.371 5.246 5.371C2.643 5.371 0 7.636 0 11.916C0 14.573 0.983 17.385 2.191 19.203C3.227 20.74 4.131 22 5.432 22Z" fill="#224722"/>
</svg>
