<svg width="243" height="56" viewBox="0 0 243 56" fill="none" xmlns="http://www.w3.org/2000/svg">
<rect width="242.406" height="56" rx="28" fill="white"/>
<g clip-path="url(#clip0_1_137)">
<path d="M38.667 20H33.333V17.333C33.333 15.867 32.133 14.667 30.667 14.667H25.333C24.6267 14.6694 23.9499 14.951 23.4505 15.4505C22.951 15.9499 22.6694 16.6267 22.667 17.333V20H17.333C16.6265 20.0024 15.9496 20.2841 15.4501 20.7838C14.9506 21.2835 14.6691 21.9605 14.667 22.667V38.667C14.667 40.133 15.867 41.333 17.333 41.333H38.667C40.133 41.333 41.333 40.133 41.333 38.667V22.667C41.333 21.2 40.133 20 38.667 20ZM25.333 17.333H30.667V20H25.333V17.333ZM32 32H29.333V34.667C29.333 35.4 28.733 36 28 36C27.267 36 26.667 35.4 26.667 34.667V32H24C23.267 32 22.667 31.4 22.667 30.667C22.667 29.933 23.267 29.333 24 29.333H26.667V26.667C26.667 25.933 27.267 25.333 28 25.333C28.733 25.333 29.333 25.933 29.333 26.667V29.333H32C32.733 29.333 33.333 29.933 33.333 30.667C33.333 31.4 32.733 32 32 32Z" fill="#224722"/>
</g>
<path d="M63.446 25.5H61.9489C61.8603 25.0694 61.7054 24.6911 61.484 24.3651C61.2667 24.0391 61.0011 23.7654 60.6871 23.544C60.3772 23.3187 60.0331 23.1496 59.6548 23.0369C59.2765 22.9242 58.8821 22.8679 58.4716 22.8679C57.723 22.8679 57.0449 23.0571 56.4371 23.4354C55.8335 23.8137 55.3525 24.3711 54.9943 25.1076C54.6402 25.8441 54.4631 26.7476 54.4631 27.8182C54.4631 28.8887 54.6402 29.7923 54.9943 30.5288C55.3525 31.2653 55.8335 31.8227 56.4371 32.201C57.0449 32.5793 57.723 32.7685 58.4716 32.7685C58.8821 32.7685 59.2765 32.7121 59.6548 32.5994C60.0331 32.4867 60.3772 32.3197 60.6871 32.0984C61.0011 31.873 61.2667 31.5973 61.484 31.2713C61.7054 30.9413 61.8603 30.563 61.9489 30.1364H63.446C63.3333 30.7682 63.1281 31.3337 62.8303 31.8327C62.5324 32.3318 62.1622 32.7564 61.7195 33.1065C61.2768 33.4527 60.7797 33.7163 60.2283 33.8974C59.681 34.0785 59.0954 34.169 58.4716 34.169C57.4171 34.169 56.4794 33.9115 55.6584 33.3963C54.8374 32.8812 54.1914 32.1487 53.7205 31.1989C53.2496 30.2491 53.0142 29.1222 53.0142 27.8182C53.0142 26.5142 53.2496 25.3873 53.7205 24.4375C54.1914 23.4877 54.8374 22.7552 55.6584 22.2401C56.4794 21.7249 57.4171 21.4673 58.4716 21.4673C59.0954 21.4673 59.681 21.5579 60.2283 21.739C60.7797 21.9201 61.2768 22.1857 61.7195 22.5359C62.1622 22.882 62.5324 23.3046 62.8303 23.8036C63.1281 24.2987 63.3333 24.8641 63.446 25.5ZM67.0969 28.4219V34H65.6721V21.6364H67.0969V26.1761H67.2176C67.4349 25.6972 67.7609 25.3169 68.1956 25.0352C68.6343 24.7494 69.2178 24.6065 69.9463 24.6065C70.5782 24.6065 71.1315 24.7333 71.6064 24.9869C72.0814 25.2364 72.4496 25.6207 72.7112 26.1399C72.9768 26.6551 73.1096 27.3111 73.1096 28.108V34H71.6849V28.2045C71.6849 27.468 71.4938 26.8986 71.1114 26.4961C70.7331 26.0896 70.2079 25.8864 69.5358 25.8864C69.0689 25.8864 68.6504 25.985 68.2801 26.1822C67.9139 26.3794 67.6241 26.6671 67.4108 27.0455C67.2015 27.4238 67.0969 27.8826 67.0969 28.4219ZM78.4448 34.2173C77.8572 34.2173 77.3239 34.1067 76.845 33.8853C76.3661 33.6599 75.9857 33.3359 75.704 32.9134C75.4223 32.4867 75.2814 31.9716 75.2814 31.3679C75.2814 30.8366 75.3861 30.406 75.5953 30.076C75.8046 29.742 76.0843 29.4804 76.4345 29.2912C76.7846 29.102 77.171 28.9612 77.5936 28.8686C78.0202 28.772 78.4488 28.6955 78.8794 28.6392C79.4429 28.5668 79.8997 28.5124 80.2498 28.4762C80.604 28.436 80.8616 28.3696 81.0225 28.277C81.1876 28.1844 81.2701 28.0234 81.2701 27.794V27.7457C81.2701 27.1501 81.1071 26.6873 80.7811 26.3572C80.4591 26.0272 79.9701 25.8622 79.3141 25.8622C78.6339 25.8622 78.1007 26.0111 77.7143 26.3089C77.3279 26.6068 77.0563 26.9247 76.8993 27.2628L75.5471 26.7798C75.7885 26.2164 76.1105 25.7777 76.513 25.4638C76.9194 25.1458 77.3622 24.9245 77.8411 24.7997C78.324 24.6709 78.7989 24.6065 79.2658 24.6065C79.5636 24.6065 79.9057 24.6428 80.2921 24.7152C80.6825 24.7836 81.0588 24.9265 81.421 25.1438C81.7872 25.3612 82.0911 25.6892 82.3326 26.1278C82.574 26.5665 82.6948 27.1541 82.6948 27.8906V34H81.2701V32.7443H81.1976C81.101 32.9455 80.94 33.1609 80.7147 33.3903C80.4893 33.6197 80.1895 33.8149 79.8152 33.9759C79.4409 34.1368 78.9841 34.2173 78.4448 34.2173ZM78.6621 32.9375C79.2256 32.9375 79.7005 32.8268 80.0868 32.6055C80.4772 32.3841 80.771 32.0984 80.9682 31.7482C81.1694 31.3981 81.2701 31.0298 81.2701 30.6435V29.3395C81.2097 29.4119 81.0769 29.4783 80.8716 29.5387C80.6704 29.5951 80.437 29.6454 80.1713 29.6896C79.9097 29.7299 79.6542 29.7661 79.4047 29.7983C79.1592 29.8265 78.9599 29.8506 78.807 29.8707C78.4367 29.919 78.0906 29.9975 77.7686 30.1062C77.4507 30.2108 77.1931 30.3698 76.9959 30.5831C76.8027 30.7924 76.7061 31.0781 76.7061 31.4403C76.7061 31.9354 76.8893 32.3097 77.2555 32.5632C77.6258 32.8127 78.0946 32.9375 78.6621 32.9375ZM86.7199 28.4219V34H85.2952V24.7273H86.6716V26.1761H86.7923C87.0097 25.7053 87.3397 25.3269 87.7824 25.0412C88.2251 24.7514 88.7966 24.6065 89.4969 24.6065C90.1247 24.6065 90.6741 24.7353 91.145 24.9929C91.6159 25.2464 91.9821 25.6328 92.2437 26.152C92.5053 26.6671 92.6361 27.3191 92.6361 28.108V34H91.2114V28.2045C91.2114 27.4761 91.0222 26.9086 90.6439 26.5021C90.2656 26.0916 89.7464 25.8864 89.0864 25.8864C88.6316 25.8864 88.2251 25.985 87.8669 26.1822C87.5128 26.3794 87.233 26.6671 87.0278 27.0455C86.8225 27.4238 86.7199 27.8826 86.7199 28.4219ZM98.9824 37.6705C98.2942 37.6705 97.7026 37.5819 97.2076 37.4048C96.7125 37.2318 96.3 37.0024 95.97 36.7166C95.644 36.4349 95.3844 36.133 95.1912 35.8111L96.3262 35.0142C96.455 35.1832 96.618 35.3764 96.8152 35.5938C97.0124 35.8151 97.282 36.0063 97.6241 36.1673C97.9702 36.3323 98.423 36.4148 98.9824 36.4148C99.731 36.4148 100.349 36.2337 100.836 35.8714C101.323 35.5092 101.566 34.9418 101.566 34.169V32.2855H101.445C101.341 32.4545 101.192 32.6638 100.999 32.9134C100.81 33.1589 100.536 33.3782 100.178 33.5714C99.8236 33.7605 99.3446 33.8551 98.7409 33.8551C97.9924 33.8551 97.3203 33.678 96.7246 33.3239C96.133 32.9697 95.6641 32.4545 95.318 31.7784C94.9759 31.1023 94.8049 30.2812 94.8049 29.3153C94.8049 28.3655 94.9719 27.5385 95.3059 26.8342C95.64 26.1258 96.1048 25.5785 96.7005 25.1921C97.2961 24.8017 97.9843 24.6065 98.7651 24.6065C99.3688 24.6065 99.8477 24.7071 100.202 24.9084C100.56 25.1056 100.834 25.331 101.023 25.5845C101.216 25.834 101.365 26.0393 101.47 26.2003H101.615V24.7273H102.991V34.2656C102.991 35.0625 102.81 35.7105 102.448 36.2095C102.089 36.7126 101.606 37.0808 100.999 37.3143C100.395 37.5517 99.723 37.6705 98.9824 37.6705ZM98.9341 32.5753C99.5056 32.5753 99.9886 32.4445 100.383 32.1829C100.777 31.9213 101.077 31.545 101.282 31.054C101.488 30.563 101.59 29.9754 101.59 29.2912C101.59 28.6231 101.49 28.0335 101.289 27.5224C101.087 27.0112 100.789 26.6108 100.395 26.321C100.001 26.0312 99.5137 25.8864 98.9341 25.8864C98.3304 25.8864 97.8274 26.0393 97.4249 26.3452C97.0265 26.651 96.7266 27.0616 96.5254 27.5767C96.3282 28.0919 96.2296 28.6634 96.2296 29.2912C96.2296 29.9351 96.3302 30.5046 96.5314 30.9996C96.7367 31.4906 97.0385 31.877 97.437 32.1587C97.8394 32.4364 98.3385 32.5753 98.9341 32.5753ZM109.487 34.1932C108.593 34.1932 107.823 33.996 107.175 33.6016C106.531 33.2031 106.034 32.6477 105.683 31.9354C105.337 31.219 105.164 30.3859 105.164 29.4361C105.164 28.4863 105.337 27.6491 105.683 26.9247C106.034 26.1963 106.521 25.6288 107.144 25.2223C107.772 24.8118 108.505 24.6065 109.342 24.6065C109.825 24.6065 110.302 24.687 110.773 24.848C111.243 25.009 111.672 25.2706 112.058 25.6328C112.445 25.991 112.753 26.4659 112.982 27.0575C113.211 27.6491 113.326 28.3776 113.326 29.2429V29.8466H106.178V28.6151H111.877C111.877 28.0919 111.773 27.625 111.563 27.2145C111.358 26.804 111.064 26.48 110.682 26.2425C110.304 26.0051 109.857 25.8864 109.342 25.8864C108.774 25.8864 108.283 26.0272 107.869 26.3089C107.458 26.5866 107.142 26.9489 106.921 27.3956C106.7 27.8423 106.589 28.3213 106.589 28.8324V29.6534C106.589 30.3537 106.71 30.9473 106.951 31.4343C107.197 31.9173 107.537 32.2855 107.971 32.5391C108.406 32.7886 108.911 32.9134 109.487 32.9134C109.861 32.9134 110.199 32.861 110.501 32.7564C110.807 32.6477 111.07 32.4867 111.292 32.2734C111.513 32.0561 111.684 31.7865 111.805 31.4645L113.181 31.8509C113.036 32.3177 112.793 32.7282 112.451 33.0824C112.109 33.4325 111.686 33.7062 111.183 33.9034C110.68 34.0966 110.115 34.1932 109.487 34.1932ZM120.275 37.4773V24.7273H121.651V26.2003H121.82C121.925 26.0393 122.07 25.834 122.255 25.5845C122.444 25.331 122.714 25.1056 123.064 24.9084C123.418 24.7071 123.897 24.6065 124.501 24.6065C125.281 24.6065 125.97 24.8017 126.565 25.1921C127.161 25.5825 127.626 26.1359 127.96 26.8523C128.294 27.5687 128.461 28.4138 128.461 29.3878C128.461 30.3698 128.294 31.221 127.96 31.9414C127.626 32.6578 127.163 33.2132 126.571 33.6076C125.98 33.998 125.297 34.1932 124.525 34.1932C123.929 34.1932 123.452 34.0946 123.094 33.8974C122.736 33.6961 122.46 33.4687 122.267 33.2152C122.074 32.9576 121.925 32.7443 121.82 32.5753H121.699V37.4773H120.275ZM121.675 29.3636C121.675 30.0639 121.778 30.6817 121.983 31.217C122.188 31.7482 122.488 32.1648 122.883 32.4666C123.277 32.7644 123.76 32.9134 124.331 32.9134C124.927 32.9134 125.424 32.7564 125.823 32.4425C126.225 32.1245 126.527 31.6979 126.728 31.1626C126.933 30.6233 127.036 30.0237 127.036 29.3636C127.036 28.7116 126.935 28.1241 126.734 27.6009C126.537 27.0736 126.237 26.6571 125.835 26.3512C125.436 26.0413 124.935 25.8864 124.331 25.8864C123.752 25.8864 123.265 26.0333 122.871 26.3271C122.476 26.6168 122.178 27.0233 121.977 27.5465C121.776 28.0657 121.675 28.6714 121.675 29.3636ZM132.059 21.6364V34H130.634V21.6364H132.059ZM137.397 34.2173C136.809 34.2173 136.276 34.1067 135.797 33.8853C135.318 33.6599 134.938 33.3359 134.656 32.9134C134.374 32.4867 134.234 31.9716 134.234 31.3679C134.234 30.8366 134.338 30.406 134.547 30.076C134.757 29.742 135.036 29.4804 135.387 29.2912C135.737 29.102 136.123 28.9612 136.546 28.8686C136.972 28.772 137.401 28.6955 137.832 28.6392C138.395 28.5668 138.852 28.5124 139.202 28.4762C139.556 28.436 139.814 28.3696 139.975 28.277C140.14 28.1844 140.222 28.0234 140.222 27.794V27.7457C140.222 27.1501 140.059 26.6873 139.733 26.3572C139.411 26.0272 138.922 25.8622 138.266 25.8622C137.586 25.8622 137.053 26.0111 136.666 26.3089C136.28 26.6068 136.008 26.9247 135.851 27.2628L134.499 26.7798C134.741 26.2164 135.063 25.7777 135.465 25.4638C135.872 25.1458 136.314 24.9245 136.793 24.7997C137.276 24.6709 137.751 24.6065 138.218 24.6065C138.516 24.6065 138.858 24.6428 139.244 24.7152C139.635 24.7836 140.011 24.9265 140.373 25.1438C140.739 25.3612 141.043 25.6892 141.285 26.1278C141.526 26.5665 141.647 27.1541 141.647 27.8906V34H140.222V32.7443H140.15C140.053 32.9455 139.892 33.1609 139.667 33.3903C139.441 33.6197 139.142 33.8149 138.767 33.9759C138.393 34.1368 137.936 34.2173 137.397 34.2173ZM137.614 32.9375C138.178 32.9375 138.653 32.8268 139.039 32.6055C139.429 32.3841 139.723 32.0984 139.92 31.7482C140.122 31.3981 140.222 31.0298 140.222 30.6435V29.3395C140.162 29.4119 140.029 29.4783 139.824 29.5387C139.623 29.5951 139.389 29.6454 139.123 29.6896C138.862 29.7299 138.606 29.7661 138.357 29.7983C138.111 29.8265 137.912 29.8506 137.759 29.8707C137.389 29.919 137.043 29.9975 136.721 30.1062C136.403 30.2108 136.145 30.3698 135.948 30.5831C135.755 30.7924 135.658 31.0781 135.658 31.4403C135.658 31.9354 135.841 32.3097 136.208 32.5632C136.578 32.8127 137.047 32.9375 137.614 32.9375ZM145.672 28.4219V34H144.247V24.7273H145.624V26.1761H145.744C145.962 25.7053 146.292 25.3269 146.735 25.0412C147.177 24.7514 147.749 24.6065 148.449 24.6065C149.077 24.6065 149.626 24.7353 150.097 24.9929C150.568 25.2464 150.934 25.6328 151.196 26.152C151.457 26.6671 151.588 27.3191 151.588 28.108V34H150.164V28.2045C150.164 27.4761 149.974 26.9086 149.596 26.5021C149.218 26.0916 148.699 25.8864 148.039 25.8864C147.584 25.8864 147.177 25.985 146.819 26.1822C146.465 26.3794 146.185 26.6671 145.98 27.0455C145.775 27.4238 145.672 27.8826 145.672 28.4219ZM158.224 24.7273V25.9347H153.419V24.7273H158.224ZM154.82 22.5057H156.244V31.3438C156.244 31.7462 156.303 32.0481 156.419 32.2493C156.54 32.4465 156.693 32.5793 156.878 32.6477C157.067 32.7121 157.266 32.7443 157.476 32.7443C157.633 32.7443 157.762 32.7363 157.862 32.7202C157.963 32.7 158.043 32.6839 158.104 32.6719L158.393 33.9517C158.297 33.9879 158.162 34.0241 157.989 34.0604C157.816 34.1006 157.597 34.1207 157.331 34.1207C156.928 34.1207 156.534 34.0342 156.148 33.8612C155.765 33.6881 155.447 33.4245 155.194 33.0703C154.944 32.7161 154.82 32.2694 154.82 31.7301V22.5057ZM166.573 21.6364V34H165.149V21.6364H166.573ZM172.95 34.1932C172.113 34.1932 171.378 33.994 170.746 33.5955C170.119 33.1971 169.628 32.6397 169.273 31.9233C168.923 31.2069 168.748 30.3698 168.748 29.4119C168.748 28.446 168.923 27.6029 169.273 26.8825C169.628 26.162 170.119 25.6026 170.746 25.2042C171.378 24.8058 172.113 24.6065 172.95 24.6065C173.787 24.6065 174.52 24.8058 175.147 25.2042C175.779 25.6026 176.27 26.162 176.62 26.8825C176.975 27.6029 177.152 28.446 177.152 29.4119C177.152 30.3698 176.975 31.2069 176.62 31.9233C176.27 32.6397 175.779 33.1971 175.147 33.5955C174.52 33.994 173.787 34.1932 172.95 34.1932ZM172.95 32.9134C173.586 32.9134 174.109 32.7504 174.52 32.4244C174.93 32.0984 175.234 31.6697 175.431 31.1385C175.628 30.6072 175.727 30.0317 175.727 29.4119C175.727 28.7921 175.628 28.2146 175.431 27.6793C175.234 27.1441 174.93 26.7114 174.52 26.3814C174.109 26.0514 173.586 25.8864 172.95 25.8864C172.314 25.8864 171.791 26.0514 171.38 26.3814C170.97 26.7114 170.666 27.1441 170.469 27.6793C170.272 28.2146 170.173 28.7921 170.173 29.4119C170.173 30.0317 170.272 30.6072 170.469 31.1385C170.666 31.6697 170.97 32.0984 171.38 32.4244C171.791 32.7504 172.314 32.9134 172.95 32.9134ZM183.093 34.1932C182.224 34.1932 181.476 33.9879 180.848 33.5774C180.22 33.1669 179.737 32.6014 179.399 31.881C179.061 31.1606 178.892 30.3376 178.892 29.4119C178.892 28.4702 179.065 27.6391 179.411 26.9187C179.761 26.1942 180.248 25.6288 180.872 25.2223C181.5 24.8118 182.232 24.6065 183.069 24.6065C183.721 24.6065 184.309 24.7273 184.832 24.9688C185.355 25.2102 185.784 25.5483 186.118 25.983C186.452 26.4176 186.659 26.9247 186.74 27.5043H185.315C185.206 27.0817 184.965 26.7074 184.591 26.3814C184.22 26.0514 183.721 25.8864 183.093 25.8864C182.538 25.8864 182.051 26.0312 181.633 26.321C181.218 26.6068 180.894 27.0112 180.661 27.5344C180.431 28.0536 180.316 28.6634 180.316 29.3636C180.316 30.08 180.429 30.7038 180.655 31.2351C180.884 31.7663 181.206 32.1789 181.62 32.4727C182.039 32.7665 182.53 32.9134 183.093 32.9134C183.464 32.9134 183.8 32.849 184.102 32.7202C184.403 32.5914 184.659 32.4062 184.868 32.1648C185.078 31.9233 185.227 31.6335 185.315 31.2955H186.74C186.659 31.8428 186.46 32.3358 186.142 32.7745C185.828 33.2092 185.412 33.5553 184.892 33.8129C184.377 34.0664 183.778 34.1932 183.093 34.1932ZM191.551 34.2173C190.964 34.2173 190.43 34.1067 189.951 33.8853C189.473 33.6599 189.092 33.3359 188.81 32.9134C188.529 32.4867 188.388 31.9716 188.388 31.3679C188.388 30.8366 188.493 30.406 188.702 30.076C188.911 29.742 189.191 29.4804 189.541 29.2912C189.891 29.102 190.277 28.9612 190.7 28.8686C191.127 28.772 191.555 28.6955 191.986 28.6392C192.549 28.5668 193.006 28.5124 193.356 28.4762C193.71 28.436 193.968 28.3696 194.129 28.277C194.294 28.1844 194.377 28.0234 194.377 27.794V27.7457C194.377 27.1501 194.214 26.6873 193.888 26.3572C193.566 26.0272 193.077 25.8622 192.421 25.8622C191.74 25.8622 191.207 26.0111 190.821 26.3089C190.434 26.6068 190.163 26.9247 190.006 27.2628L188.653 26.7798C188.895 26.2164 189.217 25.7777 189.619 25.4638C190.026 25.1458 190.469 24.9245 190.948 24.7997C191.43 24.6709 191.905 24.6065 192.372 24.6065C192.67 24.6065 193.012 24.6428 193.399 24.7152C193.789 24.7836 194.165 24.9265 194.527 25.1438C194.894 25.3612 195.198 25.6892 195.439 26.1278C195.68 26.5665 195.801 27.1541 195.801 27.8906V34H194.377V32.7443H194.304C194.207 32.9455 194.046 33.1609 193.821 33.3903C193.596 33.6197 193.296 33.8149 192.922 33.9759C192.547 34.1368 192.091 34.2173 191.551 34.2173ZM191.769 32.9375C192.332 32.9375 192.807 32.8268 193.193 32.6055C193.584 32.3841 193.877 32.0984 194.075 31.7482C194.276 31.3981 194.377 31.0298 194.377 30.6435V29.3395C194.316 29.4119 194.183 29.4783 193.978 29.5387C193.777 29.5951 193.543 29.6454 193.278 29.6896C193.016 29.7299 192.761 29.7661 192.511 29.7983C192.266 29.8265 192.066 29.8506 191.913 29.8707C191.543 29.919 191.197 29.9975 190.875 30.1062C190.557 30.2108 190.3 30.3698 190.102 30.5831C189.909 30.7924 189.813 31.0781 189.813 31.4403C189.813 31.9354 189.996 32.3097 190.362 32.5632C190.732 32.8127 191.201 32.9375 191.769 32.9375ZM202.434 24.7273V25.9347H197.629V24.7273H202.434ZM199.029 22.5057H200.454V31.3438C200.454 31.7462 200.513 32.0481 200.629 32.2493C200.75 32.4465 200.903 32.5793 201.088 32.6477C201.277 32.7121 201.476 32.7443 201.686 32.7443C201.843 32.7443 201.971 32.7363 202.072 32.7202C202.173 32.7 202.253 32.6839 202.314 32.6719L202.603 33.9517C202.507 33.9879 202.372 34.0241 202.199 34.0604C202.026 34.1006 201.806 34.1207 201.541 34.1207C201.138 34.1207 200.744 34.0342 200.358 33.8612C199.975 33.6881 199.657 33.4245 199.404 33.0703C199.154 32.7161 199.029 32.2694 199.029 31.7301V22.5057ZM204.577 34V24.7273H206.002V34H204.577ZM205.302 23.1818C205.024 23.1818 204.785 23.0872 204.583 22.8981C204.386 22.7089 204.288 22.4815 204.288 22.2159C204.288 21.9503 204.386 21.7229 204.583 21.5337C204.785 21.3446 205.024 21.25 205.302 21.25C205.58 21.25 205.817 21.3446 206.014 21.5337C206.215 21.7229 206.316 21.9503 206.316 22.2159C206.316 22.4815 206.215 22.7089 206.014 22.8981C205.817 23.0872 205.58 23.1818 205.302 23.1818ZM212.379 34.1932C211.542 34.1932 210.807 33.994 210.175 33.5955C209.547 33.1971 209.056 32.6397 208.702 31.9233C208.352 31.2069 208.177 30.3698 208.177 29.4119C208.177 28.446 208.352 27.6029 208.702 26.8825C209.056 26.162 209.547 25.6026 210.175 25.2042C210.807 24.8058 211.542 24.6065 212.379 24.6065C213.216 24.6065 213.948 24.8058 214.576 25.2042C215.208 25.6026 215.699 26.162 216.049 26.8825C216.403 27.6029 216.58 28.446 216.58 29.4119C216.58 30.3698 216.403 31.2069 216.049 31.9233C215.699 32.6397 215.208 33.1971 214.576 33.5955C213.948 33.994 213.216 34.1932 212.379 34.1932ZM212.379 32.9134C213.015 32.9134 213.538 32.7504 213.948 32.4244C214.359 32.0984 214.663 31.6697 214.86 31.1385C215.057 30.6072 215.156 30.0317 215.156 29.4119C215.156 28.7921 215.057 28.2146 214.86 27.6793C214.663 27.1441 214.359 26.7114 213.948 26.3814C213.538 26.0514 213.015 25.8864 212.379 25.8864C211.743 25.8864 211.22 26.0514 210.809 26.3814C210.399 26.7114 210.095 27.1441 209.897 27.6793C209.7 28.2146 209.602 28.7921 209.602 29.4119C209.602 30.0317 209.7 30.6072 209.897 31.1385C210.095 31.6697 210.399 32.0984 210.809 32.4244C211.22 32.7504 211.743 32.9134 212.379 32.9134ZM220.18 28.4219V34H218.755V24.7273H220.132V26.1761H220.252C220.47 25.7053 220.8 25.3269 221.242 25.0412C221.685 24.7514 222.257 24.6065 222.957 24.6065C223.585 24.6065 224.134 24.7353 224.605 24.9929C225.076 25.2464 225.442 25.6328 225.704 26.152C225.965 26.6671 226.096 27.3191 226.096 28.108V34H224.671V28.2045C224.671 27.4761 224.482 26.9086 224.104 26.5021C223.726 26.0916 223.206 25.8864 222.546 25.8864C222.092 25.8864 221.685 25.985 221.327 26.1822C220.973 26.3794 220.693 26.6671 220.488 27.0455C220.282 27.4238 220.18 27.8826 220.18 28.4219Z" fill="#224722"/>
<defs>
<clipPath id="clip0_1_137">
<rect width="32" height="32" fill="white" transform="translate(12 12)"/>
</clipPath>
</defs>
</svg>
