<svg width="22" height="27" viewBox="0 0 22 27" fill="none" xmlns="http://www.w3.org/2000/svg">
<path d="M11.547 0.329913C11.3007 0.117101 10.986 0 10.6605 0C10.335 0 10.0203 0.117101 9.774 0.329913C3.267 6.06291 0 11.0499 0 15.2899C0 21.9299 5.067 26.2229 10.667 26.2229C16.267 26.2229 21.334 21.9299 21.334 15.2899C21.334 11.0499 18.067 6.06291 11.547 0.329913ZM5.107 15.5559C5.6 15.5559 6 15.9029 6.094 16.3829C6.64 19.3429 9.134 20.3569 10.947 20.2099C11.0826 20.2031 11.2182 20.224 11.3455 20.2712C11.4728 20.3183 11.5892 20.3909 11.6877 20.4844C11.7861 20.5779 11.8646 20.6904 11.9183 20.8151C11.972 20.9398 11.9998 21.0741 12 21.2099C12 21.7429 11.574 22.1829 11.04 22.2099C8.2 22.3829 4.88 20.7559 4.12 16.7159C4.014 16.1159 4.494 15.5559 5.107 15.5559Z" fill="#224722"/>
</svg>
