<svg width="192" height="56" viewBox="0 0 192 56" fill="none" xmlns="http://www.w3.org/2000/svg">
<rect width="191.125" height="56" rx="28" fill="white"/>
<g clip-path="url(#clip0_1_107)">
<path d="M16 18.667V24H18.667V18.667H24V16H18.667C17.9603 16.0021 17.2832 16.2838 16.7835 16.7835C16.2838 17.2832 16.0021 17.9603 16 18.667ZM18.667 32H16V37.333C16 38.8 17.2 40 18.667 40H24V37.333H18.667V32ZM37.333 37.333H32V40H37.333C38.8 40 40 38.8 40 37.333V32H37.333V37.333ZM37.333 16H32V18.667H37.333V24H40V18.667C40 17.2 38.8 16 37.333 16Z" fill="#224722"/>
</g>
<path d="M60.2585 24.7273C60.1861 24.1155 59.8923 23.6406 59.3771 23.3026C58.862 22.9645 58.2301 22.7955 57.4815 22.7955C56.9342 22.7955 56.4553 22.884 56.0447 23.0611C55.6383 23.2382 55.3203 23.4817 55.0909 23.7915C54.8655 24.1014 54.7528 24.4536 54.7528 24.848C54.7528 25.178 54.8313 25.4618 54.9883 25.6992C55.1493 25.9326 55.3545 26.1278 55.604 26.2848C55.8536 26.4377 56.1152 26.5645 56.3888 26.6651C56.6625 26.7617 56.9141 26.8402 57.1435 26.9006L58.3991 27.2386C58.7211 27.3232 59.0793 27.4399 59.4737 27.5888C59.8722 27.7377 60.2525 27.9409 60.6147 28.1985C60.9809 28.4521 61.2828 28.7781 61.5202 29.1765C61.7577 29.5749 61.8764 30.0639 61.8764 30.6435C61.8764 31.3116 61.7013 31.9152 61.3512 32.4545C61.0051 32.9938 60.498 33.4225 59.8299 33.7404C59.1658 34.0584 58.3589 34.2173 57.4091 34.2173C56.5237 34.2173 55.757 34.0745 55.109 33.7887C54.4651 33.503 53.958 33.1045 53.5877 32.5934C53.2215 32.0823 53.0142 31.4886 52.9659 30.8125H54.5114C54.5516 31.2794 54.7086 31.6657 54.9822 31.9716C55.2599 32.2734 55.6101 32.4988 56.0327 32.6477C56.4593 32.7926 56.9181 32.8651 57.4091 32.8651C57.9806 32.8651 58.4937 32.7725 58.9485 32.5874C59.4033 32.3982 59.7635 32.1366 60.0291 31.8026C60.2947 31.4645 60.4276 31.0701 60.4276 30.6193C60.4276 30.2088 60.3129 29.8748 60.0835 29.6172C59.854 29.3596 59.5522 29.1503 59.1779 28.9893C58.8036 28.8284 58.3991 28.6875 57.9645 28.5668L56.4432 28.1321C55.4773 27.8544 54.7126 27.458 54.1491 26.9428C53.5857 26.4277 53.304 25.7536 53.304 24.9205C53.304 24.2282 53.4911 23.6245 53.8654 23.1094C54.2437 22.5902 54.7508 22.1877 55.3867 21.902C56.0266 21.6122 56.741 21.4673 57.5298 21.4673C58.3267 21.4673 59.035 21.6102 59.6548 21.896C60.2746 22.1777 60.7656 22.564 61.1278 23.055C61.4941 23.546 61.6873 24.1035 61.7074 24.7273H60.2585ZM67.9118 34.1932C67.0425 34.1932 66.2939 33.9879 65.6661 33.5774C65.0383 33.1669 64.5553 32.6014 64.2172 31.881C63.8792 31.1606 63.7101 30.3376 63.7101 29.4119C63.7101 28.4702 63.8832 27.6391 64.2293 26.9187C64.5795 26.1942 65.0664 25.6288 65.6903 25.2223C66.3181 24.8118 67.0506 24.6065 67.8877 24.6065C68.5397 24.6065 69.1273 24.7273 69.6505 24.9688C70.1737 25.2102 70.6023 25.5483 70.9363 25.983C71.2704 26.4176 71.4777 26.9247 71.5582 27.5043H70.1334C70.0248 27.0817 69.7833 26.7074 69.409 26.3814C69.0387 26.0514 68.5397 25.8864 67.9118 25.8864C67.3564 25.8864 66.8695 26.0312 66.4509 26.321C66.0364 26.6068 65.7124 27.0112 65.479 27.5344C65.2496 28.0536 65.1349 28.6634 65.1349 29.3636C65.1349 30.08 65.2475 30.7038 65.4729 31.2351C65.7023 31.7663 66.0243 32.1789 66.4388 32.4727C66.8574 32.7665 67.3484 32.9134 67.9118 32.9134C68.2821 32.9134 68.6182 32.849 68.92 32.7202C69.2219 32.5914 69.4774 32.4062 69.6867 32.1648C69.896 31.9233 70.0449 31.6335 70.1334 31.2955H71.5582C71.4777 31.8428 71.2784 32.3358 70.9605 32.7745C70.6466 33.2092 70.23 33.5553 69.7108 33.8129C69.1957 34.0664 68.596 34.1932 67.9118 34.1932ZM76.3696 34.2173C75.782 34.2173 75.2487 34.1067 74.7698 33.8853C74.2909 33.6599 73.9105 33.3359 73.6288 32.9134C73.3471 32.4867 73.2062 31.9716 73.2062 31.3679C73.2062 30.8366 73.3109 30.406 73.5202 30.076C73.7294 29.742 74.0091 29.4804 74.3593 29.2912C74.7094 29.102 75.0958 28.9612 75.5184 28.8686C75.945 28.772 76.3736 28.6955 76.8042 28.6392C77.3677 28.5668 77.8245 28.5124 78.1746 28.4762C78.5288 28.436 78.7864 28.3696 78.9474 28.277C79.1124 28.1844 79.1949 28.0234 79.1949 27.794V27.7457C79.1949 27.1501 79.0319 26.6873 78.7059 26.3572C78.3839 26.0272 77.8949 25.8622 77.2389 25.8622C76.5587 25.8622 76.0255 26.0111 75.6391 26.3089C75.2528 26.6068 74.9811 26.9247 74.8241 27.2628L73.4719 26.7798C73.7133 26.2164 74.0353 25.7777 74.4378 25.4638C74.8443 25.1458 75.287 24.9245 75.7659 24.7997C76.2488 24.6709 76.7238 24.6065 77.1906 24.6065C77.4884 24.6065 77.8305 24.6428 78.2169 24.7152C78.6073 24.7836 78.9836 24.9265 79.3458 25.1438C79.712 25.3612 80.0159 25.6892 80.2574 26.1278C80.4988 26.5665 80.6196 27.1541 80.6196 27.8906V34H79.1949V32.7443H79.1224C79.0258 32.9455 78.8648 33.1609 78.6395 33.3903C78.4141 33.6197 78.1143 33.8149 77.74 33.9759C77.3657 34.1368 76.9089 34.2173 76.3696 34.2173ZM76.5869 32.9375C77.1504 32.9375 77.6253 32.8268 78.0116 32.6055C78.402 32.3841 78.6958 32.0984 78.893 31.7482C79.0943 31.3981 79.1949 31.0298 79.1949 30.6435V29.3395C79.1345 29.4119 79.0017 29.4783 78.7964 29.5387C78.5952 29.5951 78.3618 29.6454 78.0961 29.6896C77.8345 29.7299 77.579 29.7661 77.3295 29.7983C77.084 29.8265 76.8847 29.8506 76.7318 29.8707C76.3615 29.919 76.0154 29.9975 75.6934 30.1062C75.3755 30.2108 75.1179 30.3698 74.9207 30.5831C74.7275 30.7924 74.6309 31.0781 74.6309 31.4403C74.6309 31.9354 74.8141 32.3097 75.1803 32.5632C75.5506 32.8127 76.0194 32.9375 76.5869 32.9375ZM84.6447 28.4219V34H83.22V24.7273H84.5964V26.1761H84.7172C84.9345 25.7053 85.2645 25.3269 85.7072 25.0412C86.1499 24.7514 86.7214 24.6065 87.4217 24.6065C88.0495 24.6065 88.5989 24.7353 89.0698 24.9929C89.5407 25.2464 89.9069 25.6328 90.1685 26.152C90.4301 26.6671 90.5609 27.3191 90.5609 28.108V34H89.1362V28.2045C89.1362 27.4761 88.947 26.9086 88.5687 26.5021C88.1904 26.0916 87.6712 25.8864 87.0112 25.8864C86.5564 25.8864 86.1499 25.985 85.7917 26.1822C85.4376 26.3794 85.1578 26.6671 84.9526 27.0455C84.7473 27.4238 84.6447 27.8826 84.6447 28.4219ZM98.8632 37.4773C98.6217 37.4773 98.4064 37.4571 98.2172 37.4169C98.0281 37.3807 97.8973 37.3445 97.8248 37.3082L98.1871 36.0526C98.5332 36.1411 98.839 36.1733 99.1047 36.1491C99.3703 36.125 99.6057 36.0063 99.811 35.793C100.02 35.5837 100.211 35.2436 100.384 34.7727L100.65 34.0483L97.2211 24.7273H98.7666L101.326 32.1165H101.423L103.983 24.7273H105.528L101.592 35.3523C101.415 35.8312 101.195 36.2276 100.934 36.5415C100.672 36.8595 100.368 37.0949 100.022 37.2479C99.6802 37.4008 99.2938 37.4773 98.8632 37.4773ZM110.843 34.1932C110.006 34.1932 109.272 33.994 108.64 33.5955C108.012 33.1971 107.521 32.6397 107.167 31.9233C106.817 31.2069 106.642 30.3698 106.642 29.4119C106.642 28.446 106.817 27.6029 107.167 26.8825C107.521 26.162 108.012 25.6026 108.64 25.2042C109.272 24.8058 110.006 24.6065 110.843 24.6065C111.681 24.6065 112.413 24.8058 113.041 25.2042C113.673 25.6026 114.164 26.162 114.514 26.8825C114.868 27.6029 115.045 28.446 115.045 29.4119C115.045 30.3698 114.868 31.2069 114.514 31.9233C114.164 32.6397 113.673 33.1971 113.041 33.5955C112.413 33.994 111.681 34.1932 110.843 34.1932ZM110.843 32.9134C111.479 32.9134 112.003 32.7504 112.413 32.4244C112.824 32.0984 113.127 31.6697 113.325 31.1385C113.522 30.6072 113.62 30.0317 113.62 29.4119C113.62 28.7921 113.522 28.2146 113.325 27.6793C113.127 27.1441 112.824 26.7114 112.413 26.3814C112.003 26.0514 111.479 25.8864 110.843 25.8864C110.208 25.8864 109.684 26.0514 109.274 26.3814C108.863 26.7114 108.56 27.1441 108.362 27.6793C108.165 28.2146 108.066 28.7921 108.066 29.4119C108.066 30.0317 108.165 30.6072 108.362 31.1385C108.56 31.6697 108.863 32.0984 109.274 32.4244C109.684 32.7504 110.208 32.9134 110.843 32.9134ZM123.064 30.2088V24.7273H124.488V34H123.064V32.4304H122.967C122.75 32.9013 122.412 33.3017 121.953 33.6317C121.494 33.9577 120.915 34.1207 120.214 34.1207C119.635 34.1207 119.12 33.994 118.669 33.7404C118.218 33.4828 117.864 33.0965 117.606 32.5813C117.349 32.0621 117.22 31.4081 117.22 30.6193V24.7273H118.645V30.5227C118.645 31.1989 118.834 31.7382 119.212 32.1406C119.595 32.5431 120.081 32.7443 120.673 32.7443C121.027 32.7443 121.387 32.6538 121.754 32.4727C122.124 32.2915 122.434 32.0138 122.683 31.6396C122.937 31.2653 123.064 30.7884 123.064 30.2088ZM127.098 34V24.7273H128.474V26.1278H128.571C128.74 25.669 129.046 25.2968 129.489 25.011C129.931 24.7253 130.43 24.5824 130.986 24.5824C131.09 24.5824 131.221 24.5844 131.378 24.5884C131.535 24.5924 131.654 24.5985 131.734 24.6065V26.0554C131.686 26.0433 131.575 26.0252 131.402 26.0011C131.233 25.9729 131.054 25.9588 130.865 25.9588C130.414 25.9588 130.012 26.0534 129.658 26.2425C129.307 26.4277 129.03 26.6853 128.824 27.0153C128.623 27.3413 128.523 27.7135 128.523 28.1321V34H127.098ZM138.204 37.4773V24.7273H139.581V26.2003H139.75C139.854 26.0393 139.999 25.834 140.184 25.5845C140.374 25.331 140.643 25.1056 140.993 24.9084C141.348 24.7071 141.827 24.6065 142.43 24.6065C143.211 24.6065 143.899 24.8017 144.495 25.1921C145.09 25.5825 145.555 26.1359 145.889 26.8523C146.223 27.5687 146.39 28.4138 146.39 29.3878C146.39 30.3698 146.223 31.221 145.889 31.9414C145.555 32.6578 145.093 33.2132 144.501 33.6076C143.909 33.998 143.227 34.1932 142.454 34.1932C141.859 34.1932 141.382 34.0946 141.024 33.8974C140.665 33.6961 140.39 33.4687 140.197 33.2152C140.003 32.9576 139.854 32.7443 139.75 32.5753H139.629V37.4773H138.204ZM139.605 29.3636C139.605 30.0639 139.708 30.6817 139.913 31.217C140.118 31.7482 140.418 32.1648 140.812 32.4666C141.207 32.7644 141.69 32.9134 142.261 32.9134C142.857 32.9134 143.354 32.7564 143.752 32.4425C144.155 32.1245 144.457 31.6979 144.658 31.1626C144.863 30.6233 144.966 30.0237 144.966 29.3636C144.966 28.7116 144.865 28.1241 144.664 27.6009C144.467 27.0736 144.167 26.6571 143.764 26.3512C143.366 26.0413 142.865 25.8864 142.261 25.8864C141.682 25.8864 141.195 26.0333 140.8 26.3271C140.406 26.6168 140.108 27.0233 139.907 27.5465C139.706 28.0657 139.605 28.6714 139.605 29.3636ZM149.988 21.6364V34H148.564V21.6364H149.988ZM155.327 34.2173C154.739 34.2173 154.206 34.1067 153.727 33.8853C153.248 33.6599 152.868 33.3359 152.586 32.9134C152.304 32.4867 152.163 31.9716 152.163 31.3679C152.163 30.8366 152.268 30.406 152.477 30.076C152.686 29.742 152.966 29.4804 153.316 29.2912C153.666 29.102 154.053 28.9612 154.475 28.8686C154.902 28.772 155.331 28.6955 155.761 28.6392C156.325 28.5668 156.782 28.5124 157.132 28.4762C157.486 28.436 157.743 28.3696 157.904 28.277C158.069 28.1844 158.152 28.0234 158.152 27.794V27.7457C158.152 27.1501 157.989 26.6873 157.663 26.3572C157.341 26.0272 156.852 25.8622 156.196 25.8622C155.516 25.8622 154.983 26.0111 154.596 26.3089C154.21 26.6068 153.938 26.9247 153.781 27.2628L152.429 26.7798C152.67 26.2164 152.992 25.7777 153.395 25.4638C153.801 25.1458 154.244 24.9245 154.723 24.7997C155.206 24.6709 155.681 24.6065 156.148 24.6065C156.445 24.6065 156.788 24.6428 157.174 24.7152C157.564 24.7836 157.941 24.9265 158.303 25.1438C158.669 25.3612 158.973 25.6892 159.214 26.1278C159.456 26.5665 159.577 27.1541 159.577 27.8906V34H158.152V32.7443H158.079C157.983 32.9455 157.822 33.1609 157.597 33.3903C157.371 33.6197 157.071 33.8149 156.697 33.9759C156.323 34.1368 155.866 34.2173 155.327 34.2173ZM155.544 32.9375C156.107 32.9375 156.582 32.8268 156.969 32.6055C157.359 32.3841 157.653 32.0984 157.85 31.7482C158.051 31.3981 158.152 31.0298 158.152 30.6435V29.3395C158.092 29.4119 157.959 29.4783 157.753 29.5387C157.552 29.5951 157.319 29.6454 157.053 29.6896C156.792 29.7299 156.536 29.7661 156.286 29.7983C156.041 29.8265 155.842 29.8506 155.689 29.8707C155.319 29.919 154.972 29.9975 154.65 30.1062C154.333 30.2108 154.075 30.3698 153.878 30.5831C153.685 30.7924 153.588 31.0781 153.588 31.4403C153.588 31.9354 153.771 32.3097 154.137 32.5632C154.508 32.8127 154.976 32.9375 155.544 32.9375ZM163.602 28.4219V34H162.177V24.7273H163.553V26.1761H163.674C163.892 25.7053 164.222 25.3269 164.664 25.0412C165.107 24.7514 165.678 24.6065 166.379 24.6065C167.007 24.6065 167.556 24.7353 168.027 24.9929C168.498 25.2464 168.864 25.6328 169.126 26.152C169.387 26.6671 169.518 27.3191 169.518 28.108V34H168.093V28.2045C168.093 27.4761 167.904 26.9086 167.526 26.5021C167.147 26.0916 166.628 25.8864 165.968 25.8864C165.513 25.8864 165.107 25.985 164.749 26.1822C164.395 26.3794 164.115 26.6671 163.91 27.0455C163.704 27.4238 163.602 27.8826 163.602 28.4219ZM176.154 24.7273V25.9347H171.349V24.7273H176.154ZM172.749 22.5057H174.174V31.3438C174.174 31.7462 174.232 32.0481 174.349 32.2493C174.47 32.4465 174.623 32.5793 174.808 32.6477C174.997 32.7121 175.196 32.7443 175.405 32.7443C175.562 32.7443 175.691 32.7363 175.792 32.7202C175.892 32.7 175.973 32.6839 176.033 32.6719L176.323 33.9517C176.226 33.9879 176.092 34.0241 175.919 34.0604C175.746 34.1006 175.526 34.1207 175.261 34.1207C174.858 34.1207 174.464 34.0342 174.077 33.8612C173.695 33.6881 173.377 33.4245 173.123 33.0703C172.874 32.7161 172.749 32.2694 172.749 31.7301V22.5057Z" fill="#224722"/>
<defs>
<clipPath id="clip0_1_107">
<rect width="32" height="32" fill="white" transform="translate(12 12)"/>
</clipPath>
</defs>
</svg>
