<svg width="156" height="46" viewBox="0 0 156 46" fill="none" xmlns="http://www.w3.org/2000/svg">
<g clip-path="url(#clip0_1_50)">
<path d="M150.016 0.902617C152.687 0.902617 154.861 3.02498 154.861 5.63322V39.4332C154.861 42.0415 152.687 44.1638 150.016 44.1638H5.76983C3.09841 44.1638 0.924616 42.0415 0.924616 39.4332V5.63322C0.924616 3.02498 3.09841 0.902617 5.76983 0.902617H150.016ZM150.016 -0.00012207H5.76983C2.59787 -0.00012207 0 2.53628 0 5.63322V39.4332C0 42.5302 2.59787 45.0665 5.76983 45.0665H150.016C153.188 45.0665 155.786 42.5302 155.786 39.4332V5.63322C155.786 2.53628 153.188 -0.00012207 150.016 -0.00012207Z" fill="#224722"/>
<path d="M54.7179 11.5415C54.7179 12.4822 54.4294 13.2357 53.8611 13.7977C53.2077 14.4638 52.3566 14.7989 51.3137 14.7989C50.317 14.7989 49.4659 14.4581 48.7678 13.7864C48.0682 13.1047 47.7192 12.2682 47.7192 11.2668C47.7192 10.2655 48.0682 9.42898 48.7678 8.75298C49.4659 8.07556 50.317 7.73474 51.3137 7.73474C51.81 7.73474 52.283 7.83474 52.7346 8.02064C53.1846 8.20794 53.551 8.46144 53.8164 8.7741L53.2135 9.36842C52.7504 8.83465 52.1201 8.5713 51.3137 8.5713C50.5867 8.5713 49.9564 8.81916 49.4212 9.31912C48.8919 9.82049 48.6265 10.4697 48.6265 11.2668C48.6265 12.064 48.8919 12.7188 49.4212 13.2202C49.9564 13.7145 50.5867 13.968 51.3137 13.968C52.0854 13.968 52.7346 13.7145 53.2467 13.2145C53.5842 12.8836 53.7761 12.4274 53.8265 11.8443H51.3137V11.0302H54.666C54.7064 11.2063 54.7179 11.3767 54.7179 11.5415Z" fill="#224722"/>
<path d="M60.0367 8.71904H56.8879V10.8597H59.7267V11.6737H56.8879V13.8144H60.0367V14.6439H55.9965V7.88953H60.0367V8.71904Z" fill="#224722"/>
<path d="M63.7891 14.6439H62.8977V8.71904H60.9662V7.88953H65.722V8.71904H63.7891V14.6439Z" fill="#224722"/>
<path d="M69.1641 14.6439V7.88953H70.054V14.6439H69.1641Z" fill="#224722"/>
<path d="M73.9996 14.6439H73.1153V8.71904H71.1767V7.88953H75.9383V8.71904H73.9996V14.6439Z" fill="#224722"/>
<path d="M84.942 13.7751C84.2597 14.4581 83.4144 14.7989 82.4061 14.7989C81.3921 14.7989 80.5468 14.4581 79.8646 13.7751C79.1836 13.0935 78.8448 12.2569 78.8448 11.2668C78.8448 10.2768 79.1836 9.44024 79.8646 8.75861C80.5468 8.07556 81.3921 7.73474 82.4061 7.73474C83.4086 7.73474 84.2539 8.07556 84.9362 8.76424C85.6228 9.45151 85.9618 10.2824 85.9618 11.2668C85.9618 12.2569 85.6228 13.0935 84.942 13.7751ZM80.5237 13.209C81.0372 13.7145 81.6618 13.968 82.4061 13.968C83.1447 13.968 83.775 13.7145 84.2827 13.209C84.7948 12.7033 85.0544 12.0541 85.0544 11.2668C85.0544 10.4796 84.7948 9.83034 84.2827 9.32475C83.775 8.81916 83.1447 8.56566 82.4061 8.56566C81.6618 8.56566 81.0372 8.81916 80.5237 9.32475C80.0117 9.83034 79.752 10.4796 79.752 11.2668C79.752 12.0541 80.0117 12.7033 80.5237 13.209Z" fill="#224722"/>
<path d="M87.2117 14.6439V7.88953H88.2935L91.6573 13.1426H91.6963L91.6573 11.8441V7.88953H92.5474V14.6439H91.6184L88.0959 9.13168H88.0569L88.0959 10.4358V14.6439H87.2117Z" fill="#224722"/>
<path d="M78.6252 24.5078C75.9148 24.5078 73.7007 26.5217 73.7007 29.3004C73.7007 32.0564 75.9148 34.0914 78.6252 34.0914C81.3414 34.0914 83.5556 32.0564 83.5556 29.3004C83.5556 26.5217 81.3414 24.5078 78.6252 24.5078ZM78.6252 32.2043C77.138 32.2043 75.8586 31.0059 75.8586 29.3004C75.8586 27.5724 77.138 26.3949 78.6252 26.3949C80.1124 26.3949 81.3976 27.5724 81.3976 29.3004C81.3976 31.0059 80.1124 32.2043 78.6252 32.2043ZM67.8803 24.5078C65.1642 24.5078 62.9558 26.5217 62.9558 29.3004C62.9558 32.0564 65.1642 34.0914 67.8803 34.0914C70.5951 34.0914 72.8049 32.0564 72.8049 29.3004C72.8049 26.5217 70.5951 24.5078 67.8803 24.5078ZM67.8803 32.2043C66.3917 32.2043 65.108 31.0059 65.108 29.3004C65.108 27.5724 66.3917 26.3949 67.8803 26.3949C69.3675 26.3949 70.6469 27.5724 70.6469 29.3004C70.6469 31.0059 69.3675 32.2043 67.8803 32.2043ZM55.0944 25.9767V28.0131H60.0752C59.9295 29.1511 59.54 29.9876 58.9429 30.5707C58.2158 31.2748 57.0835 32.0564 55.0944 32.0564C52.0292 32.0564 49.6289 29.6411 49.6289 26.6485C49.6289 23.6558 52.0292 21.2405 55.0944 21.2405C56.7518 21.2405 57.9577 21.8728 58.8476 22.6924L60.3175 21.2573C59.0727 20.0969 57.4168 19.2054 55.0944 19.2054C50.891 19.2054 47.3585 22.5446 47.3585 26.6485C47.3585 30.7523 50.891 34.0914 55.0944 34.0914C57.3663 34.0914 59.0727 33.3648 60.4142 32.0015C61.7889 30.6593 62.2172 28.7722 62.2172 27.2484C62.2172 26.7752 62.1769 26.34 62.1047 25.9767H55.0944ZM107.378 27.5554C106.972 26.4837 105.722 24.5078 103.174 24.5078C100.65 24.5078 98.5484 26.4499 98.5484 29.3004C98.5484 31.9846 100.629 34.0914 103.417 34.0914C105.671 34.0914 106.972 32.7493 107.508 31.9677L105.834 30.8791C105.276 31.6762 104.516 32.2043 103.417 32.2043C102.325 32.2043 101.542 31.7157 101.04 30.7523L107.604 28.1004L107.378 27.5554ZM100.685 29.1511C100.629 27.3033 102.155 26.3569 103.248 26.3569C104.105 26.3569 104.832 26.7752 105.074 27.3738L100.685 29.1511ZM95.349 33.8H97.507V19.7167H95.349V33.8ZM91.815 25.5753H91.743C91.2583 25.0148 90.3336 24.5078 89.1624 24.5078C86.7044 24.5078 84.457 26.6147 84.457 29.3159C84.457 32.0015 86.7044 34.0914 89.1624 34.0914C90.3336 34.0914 91.2583 33.5802 91.743 33.0028H91.815V33.69C91.815 35.5223 90.8125 36.5067 89.1956 36.5067C87.8771 36.5067 87.0593 35.5773 86.7218 34.7957L84.845 35.5603C85.386 36.8307 86.8183 38.3939 89.1956 38.3939C91.7256 38.3939 93.8605 36.9405 93.8605 33.4042V24.7993H91.815V25.5753ZM89.347 32.2043C87.8598 32.2043 86.615 30.9889 86.615 29.3159C86.615 27.6272 87.8598 26.3949 89.347 26.3949C90.8125 26.3949 91.9679 27.6272 91.9679 29.3159C91.9679 30.9889 90.8125 32.2043 89.347 32.2043ZM117.481 19.7167H112.32V33.8H114.472V28.4638H117.481C119.871 28.4638 122.215 26.7752 122.215 24.0895C122.215 21.4052 119.865 19.7167 117.481 19.7167ZM117.537 26.5048H114.472V21.6756H117.537C119.144 21.6756 120.061 22.9783 120.061 24.0895C120.061 25.1795 119.144 26.5048 117.537 26.5048ZM130.841 24.481C129.286 24.481 127.669 25.1514 127.004 26.6371L128.914 27.4188C129.325 26.6371 130.08 26.3837 130.88 26.3837C131.996 26.3837 133.129 27.0385 133.146 28.1948V28.3427C132.756 28.1229 131.923 27.7977 130.898 27.7977C128.84 27.7977 126.744 28.9032 126.744 30.9664C126.744 32.8536 128.429 34.0689 130.323 34.0689C131.772 34.0689 132.57 33.4309 133.072 32.6888H133.146V33.7775H135.225V28.375C135.225 25.878 133.314 24.481 130.841 24.481ZM130.581 32.1986C129.877 32.1986 128.897 31.8579 128.897 31.0059C128.897 29.9158 130.12 29.4975 131.179 29.4975C132.126 29.4975 132.57 29.7016 133.146 29.9707C132.978 31.2748 131.827 32.1986 130.581 32.1986ZM142.797 24.7894L140.323 30.8945H140.25L137.692 24.7894H135.372L139.214 33.3211L137.021 38.0686H139.271L145.191 24.7894H142.797ZM123.398 33.8H125.555V19.7167H123.398V33.8Z" fill="#224722"/>
<path d="M12.0422 8.49366C11.7033 8.84012 11.5071 9.37951 11.5071 10.078V34.9943C11.5071 35.6928 11.7033 36.2322 12.0422 36.5787L12.1259 36.6547L26.4264 22.6981V22.3686L12.1259 8.41199L12.0422 8.49366Z" fill="#224722"/>
<path d="M31.1881 27.3526L26.4265 22.6981V22.3685L31.1938 17.7141L31.3005 17.7746L36.9464 20.9109C38.5576 21.801 38.5576 23.2657 36.9464 24.1614L31.3005 27.2921L31.1881 27.3526Z" fill="#224722"/>
<path d="M31.3003 27.2922L26.4262 22.5334L12.042 36.5788C12.5771 37.128 13.4498 37.1942 14.4423 36.6449L31.3003 27.2922Z" fill="#224722"/>
<path d="M31.3003 17.7744L14.4423 8.42174C13.4498 7.87813 12.5771 7.94432 12.042 8.49356L26.4262 22.5333L31.3003 17.7744Z" fill="#224722"/>
</g>
<defs>
<clipPath id="clip0_1_50">
<rect width="156" height="45.8095" fill="white"/>
</clipPath>
</defs>
</svg>
