<svg width="27" height="27" viewBox="0 0 27 27" fill="none" xmlns="http://www.w3.org/2000/svg">
<path d="M24 5.333H18.666V2.666C18.666 1.2 17.466 0 16 0H10.666C9.95966 0.00237249 9.28293 0.284016 8.78347 0.783474C8.28402 1.28293 8.00237 1.95966 8 2.666V5.333H2.666C1.95949 5.33537 1.28261 5.61715 0.783123 6.11683C0.283636 6.6165 0.00210895 7.29349 0 8V24C0 25.466 1.2 26.666 2.666 26.666H24C25.466 26.666 26.666 25.466 26.666 24V8C26.666 6.533 25.466 5.333 24 5.333ZM10.666 2.666H16V5.333H10.666V2.666ZM17.333 17.333H14.666V20C14.666 20.733 14.066 21.333 13.333 21.333C12.6 21.333 12 20.733 12 20V17.333H9.333C8.6 17.333 8 16.733 8 16C8 15.266 8.6 14.666 9.333 14.666H12V12C12 11.266 12.6 10.666 13.333 10.666C14.066 10.666 14.666 11.266 14.666 12V14.666H17.333C18.066 14.666 18.666 15.266 18.666 16C18.666 16.733 18.066 17.333 17.333 17.333Z" fill="#224722"/>
</svg>
