<svg width="156" height="46" viewBox="0 0 156 46" fill="none" xmlns="http://www.w3.org/2000/svg">
<path d="M150.016 0.902617C152.687 0.902617 154.861 3.02498 154.861 5.63322V39.4332C154.861 42.0415 152.687 44.1638 150.016 44.1638H5.76983C3.09841 44.1638 0.924616 42.0415 0.924616 39.4332V5.63322C0.924616 3.02498 3.09841 0.902617 5.76983 0.902617H150.016ZM150.016 -0.00012207H5.76983C2.59787 -0.00012207 0 2.53628 0 5.63322V39.4332C0 42.5302 2.59787 45.0665 5.76983 45.0665H150.016C153.188 45.0665 155.786 42.5302 155.786 39.4332V5.63322C155.786 2.53628 153.188 -0.00012207 150.016 -0.00012207Z" fill="#224722"/>
</svg>
