<svg width="201" height="56" viewBox="0 0 201 56" fill="none" xmlns="http://www.w3.org/2000/svg">
<rect width="200.984" height="56" rx="28" fill="white"/>
<g clip-path="url(#clip0_1_122)">
<path d="M28 21.333C26.2321 21.3335 24.5368 22.036 23.2867 23.286C22.0365 24.5359 21.3338 26.2311 21.333 27.999C21.3338 29.767 22.0365 31.4623 23.2866 32.7124C24.5367 33.9625 26.232 34.6652 28 34.666C29.7678 34.6652 31.4629 33.9627 32.713 32.7128C33.9631 31.4628 34.6659 29.7678 34.667 28C34.6662 26.2321 33.9635 24.5367 32.7134 23.2866C31.4633 22.0365 29.7679 21.3338 28 21.333ZM14.667 29.333H17.333C18.067 29.333 18.667 28.733 18.667 28C18.667 27.266 18.067 26.666 17.333 26.666H14.667C13.933 26.666 13.333 27.266 13.333 27.999C13.333 28.733 13.933 29.333 14.667 29.333ZM38.667 29.333H41.333C42.067 29.333 42.667 28.733 42.667 28C42.667 27.266 42.067 26.666 41.333 26.666H38.667C37.933 26.666 37.333 27.266 37.333 27.999C37.333 28.733 37.933 29.333 38.667 29.333ZM26.667 14.666V17.333C26.667 18.066 27.267 18.666 28 18.666C28.733 18.666 29.333 18.066 29.333 17.333V14.666C29.333 13.933 28.733 13.333 28 13.333C27.267 13.333 26.667 13.933 26.667 14.666ZM26.667 38.666V41.333C26.667 42.066 27.267 42.666 28 42.666C28.733 42.666 29.333 42.066 29.333 41.333V38.666C29.333 37.933 28.733 37.333 28 37.333C27.267 37.333 26.667 37.933 26.667 38.666ZM19.987 18.106C19.8636 17.9824 19.7171 17.8843 19.5558 17.8174C19.3945 17.7505 19.2216 17.7161 19.047 17.7161C18.8724 17.7161 18.6995 17.7505 18.5382 17.8174C18.3769 17.8843 18.2303 17.9824 18.107 18.106C17.587 18.626 17.587 19.48 18.107 19.986L19.52 21.4C20.04 21.92 20.893 21.92 21.4 21.4C21.907 20.88 21.92 20.026 21.4 19.52L19.987 18.106ZM36.48 34.6C36.3566 34.4764 36.2101 34.3783 36.0488 34.3114C35.8875 34.2445 35.7146 34.2101 35.54 34.2101C35.3654 34.2101 35.1925 34.2445 35.0312 34.3114C34.8699 34.3783 34.7233 34.4764 34.6 34.6C34.08 35.12 34.08 35.974 34.6 36.48L36.013 37.894C36.533 38.414 37.387 38.414 37.893 37.894C38.413 37.374 38.413 36.521 37.893 36.014L36.48 34.6ZM37.893 19.987C38.413 19.467 38.413 18.614 37.893 18.107C37.7696 17.9834 37.6231 17.8853 37.4618 17.8184C37.3005 17.7515 37.1276 17.7171 36.953 17.7171C36.7784 17.7171 36.6055 17.7515 36.4442 17.8184C36.2829 17.8853 36.1363 17.9834 36.013 18.107L34.6 19.52C34.08 20.04 34.08 20.893 34.6 21.4C35.12 21.906 35.973 21.92 36.48 21.4L37.893 19.986V19.987ZM21.4 36.48C21.92 35.96 21.92 35.106 21.4 34.6C21.2766 34.4764 21.1301 34.3783 20.9688 34.3114C20.8075 34.2445 20.6346 34.2101 20.46 34.2101C20.2854 34.2101 20.1125 34.2445 19.9512 34.3114C19.7899 34.3783 19.6433 34.4764 19.52 34.6L18.107 36.013C17.587 36.533 17.587 37.386 18.107 37.893C18.627 38.399 19.48 38.413 19.987 37.893L21.4 36.48Z" fill="#224722"/>
</g>
<path d="M53.4972 34V21.6364H57.6747C58.6446 21.6364 59.4375 21.8114 60.0533 22.1616C60.6731 22.5077 61.1319 22.9766 61.4297 23.5682C61.7275 24.1598 61.8764 24.8198 61.8764 25.5483C61.8764 26.2768 61.7275 26.9388 61.4297 27.5344C61.1359 28.1301 60.6811 28.605 60.0653 28.9592C59.4496 29.3093 58.6607 29.4844 57.6989 29.4844H54.7045V28.1562H57.6506C58.3146 28.1562 58.8479 28.0415 59.2504 27.8121C59.6528 27.5827 59.9446 27.2728 60.1257 26.8825C60.3108 26.488 60.4034 26.0433 60.4034 25.5483C60.4034 25.0533 60.3108 24.6106 60.1257 24.2202C59.9446 23.8298 59.6508 23.5239 59.2443 23.3026C58.8378 23.0772 58.2985 22.9645 57.6264 22.9645H54.9943V34H53.4972ZM65.5197 21.6364V34H64.095V21.6364H65.5197ZM70.8579 34.2173C70.2703 34.2173 69.737 34.1067 69.2581 33.8853C68.7791 33.6599 68.3988 33.3359 68.1171 32.9134C67.8354 32.4867 67.6945 31.9716 67.6945 31.3679C67.6945 30.8366 67.7992 30.406 68.0084 30.076C68.2177 29.742 68.4974 29.4804 68.8476 29.2912C69.1977 29.102 69.5841 28.9612 70.0067 28.8686C70.4333 28.772 70.8619 28.6955 71.2925 28.6392C71.856 28.5668 72.3128 28.5124 72.6629 28.4762C73.0171 28.436 73.2747 28.3696 73.4356 28.277C73.6006 28.1844 73.6831 28.0234 73.6831 27.794V27.7457C73.6831 27.1501 73.5202 26.6873 73.1942 26.3572C72.8722 26.0272 72.3832 25.8622 71.7272 25.8622C71.047 25.8622 70.5138 26.0111 70.1274 26.3089C69.741 26.6068 69.4694 26.9247 69.3124 27.2628L67.9601 26.7798C68.2016 26.2164 68.5236 25.7777 68.926 25.4638C69.3325 25.1458 69.7752 24.9245 70.2542 24.7997C70.7371 24.6709 71.212 24.6065 71.6789 24.6065C71.9767 24.6065 72.3188 24.6428 72.7052 24.7152C73.0956 24.7836 73.4719 24.9265 73.8341 25.1438C74.2003 25.3612 74.5042 25.6892 74.7456 26.1278C74.9871 26.5665 75.1079 27.1541 75.1079 27.8906V34H73.6831V32.7443H73.6107C73.5141 32.9455 73.3531 33.1609 73.1278 33.3903C72.9024 33.6197 72.6025 33.8149 72.2282 33.9759C71.854 34.1368 71.3972 34.2173 70.8579 34.2173ZM71.0752 32.9375C71.6386 32.9375 72.1135 32.8268 72.4999 32.6055C72.8903 32.3841 73.1841 32.0984 73.3813 31.7482C73.5825 31.3981 73.6831 31.0298 73.6831 30.6435V29.3395C73.6228 29.4119 73.49 29.4783 73.2847 29.5387C73.0835 29.5951 72.8501 29.6454 72.5844 29.6896C72.3228 29.7299 72.0673 29.7661 71.8177 29.7983C71.5722 29.8265 71.373 29.8506 71.2201 29.8707C70.8498 29.919 70.5037 29.9975 70.1817 30.1062C69.8638 30.2108 69.6062 30.3698 69.409 30.5831C69.2158 30.7924 69.1192 31.0781 69.1192 31.4403C69.1192 31.9354 69.3023 32.3097 69.6686 32.5632C70.0389 32.8127 70.5077 32.9375 71.0752 32.9375ZM81.4753 34.1932C80.606 34.1932 79.8574 33.9879 79.2296 33.5774C78.6017 33.1669 78.1188 32.6014 77.7807 31.881C77.4426 31.1606 77.2736 30.3376 77.2736 29.4119C77.2736 28.4702 77.4467 27.6391 77.7928 26.9187C78.1429 26.1942 78.6299 25.6288 79.2537 25.2223C79.8816 24.8118 80.6141 24.6065 81.4512 24.6065C82.1032 24.6065 82.6908 24.7273 83.214 24.9688C83.7372 25.2102 84.1658 25.5483 84.4998 25.983C84.8339 26.4176 85.0411 26.9247 85.1216 27.5043H83.6969C83.5882 27.0817 83.3468 26.7074 82.9725 26.3814C82.6022 26.0514 82.1032 25.8864 81.4753 25.8864C80.9199 25.8864 80.4329 26.0312 80.0144 26.321C79.5998 26.6068 79.2759 27.0112 79.0424 27.5344C78.813 28.0536 78.6983 28.6634 78.6983 29.3636C78.6983 30.08 78.811 30.7038 79.0364 31.2351C79.2658 31.7663 79.5878 32.1789 80.0023 32.4727C80.4209 32.7665 80.9119 32.9134 81.4753 32.9134C81.8456 32.9134 82.1816 32.849 82.4835 32.7202C82.7853 32.5914 83.0409 32.4062 83.2502 32.1648C83.4595 31.9233 83.6084 31.6335 83.6969 31.2955H85.1216C85.0411 31.8428 84.8419 32.3358 84.524 32.7745C84.21 33.2092 83.7935 33.5553 83.2743 33.8129C82.7592 34.0664 82.1595 34.1932 81.4753 34.1932ZM91.0922 34.1932C90.1987 34.1932 89.428 33.996 88.78 33.6016C88.1361 33.2031 87.639 32.6477 87.2889 31.9354C86.9428 31.219 86.7697 30.3859 86.7697 29.4361C86.7697 28.4863 86.9428 27.6491 87.2889 26.9247C87.639 26.1963 88.126 25.6288 88.7498 25.2223C89.3777 24.8118 90.1101 24.6065 90.9473 24.6065C91.4302 24.6065 91.9071 24.687 92.378 24.848C92.8489 25.009 93.2775 25.2706 93.6639 25.6328C94.0502 25.991 94.3581 26.4659 94.5875 27.0575C94.8169 27.6491 94.9316 28.3776 94.9316 29.2429V29.8466H87.7839V28.6151H93.4828C93.4828 28.0919 93.3781 27.625 93.1689 27.2145C92.9636 26.804 92.6698 26.48 92.2875 26.2425C91.9092 26.0051 91.4624 25.8864 90.9473 25.8864C90.3798 25.8864 89.8888 26.0272 89.4743 26.3089C89.0637 26.5866 88.7478 26.9489 88.5265 27.3956C88.3051 27.8423 88.1944 28.3213 88.1944 28.8324V29.6534C88.1944 30.3537 88.3152 30.9473 88.5566 31.4343C88.8021 31.9173 89.1422 32.2855 89.5769 32.5391C90.0115 32.7886 90.5166 32.9134 91.0922 32.9134C91.4664 32.9134 91.8045 32.861 92.1064 32.7564C92.4122 32.6477 92.6758 32.4867 92.8972 32.2734C93.1185 32.0561 93.2896 31.7865 93.4103 31.4645L94.7868 31.8509C94.6419 32.3177 94.3984 32.7282 94.0563 33.0824C93.7142 33.4325 93.2916 33.7062 92.7885 33.9034C92.2855 34.0966 91.72 34.1932 91.0922 34.1932ZM101.88 34V24.7273H103.305V34H101.88ZM102.605 23.1818C102.327 23.1818 102.087 23.0872 101.886 22.8981C101.689 22.7089 101.59 22.4815 101.59 22.2159C101.59 21.9503 101.689 21.7229 101.886 21.5337C102.087 21.3446 102.327 21.25 102.605 21.25C102.882 21.25 103.12 21.3446 103.317 21.5337C103.518 21.7229 103.619 21.9503 103.619 22.2159C103.619 22.4815 103.518 22.7089 103.317 22.8981C103.12 23.0872 102.882 23.1818 102.605 23.1818ZM107.339 28.4219V34H105.914V24.7273H107.291V26.1761H107.411C107.629 25.7053 107.959 25.3269 108.402 25.0412C108.844 24.7514 109.416 24.6065 110.116 24.6065C110.744 24.6065 111.293 24.7353 111.764 24.9929C112.235 25.2464 112.601 25.6328 112.863 26.152C113.124 26.6671 113.255 27.3191 113.255 28.108V34H111.831V28.2045C111.831 27.4761 111.641 26.9086 111.263 26.5021C110.885 26.0916 110.366 25.8864 109.706 25.8864C109.251 25.8864 108.844 25.985 108.486 26.1822C108.132 26.3794 107.852 26.6671 107.647 27.0455C107.442 27.4238 107.339 27.8826 107.339 28.4219ZM120.64 37.4773V24.7273H122.016V26.2003H122.185C122.29 26.0393 122.435 25.834 122.62 25.5845C122.809 25.331 123.079 25.1056 123.429 24.9084C123.783 24.7071 124.262 24.6065 124.866 24.6065C125.647 24.6065 126.335 24.8017 126.93 25.1921C127.526 25.5825 127.991 26.1359 128.325 26.8523C128.659 27.5687 128.826 28.4138 128.826 29.3878C128.826 30.3698 128.659 31.221 128.325 31.9414C127.991 32.6578 127.528 33.2132 126.936 33.6076C126.345 33.998 125.663 34.1932 124.89 34.1932C124.294 34.1932 123.817 34.0946 123.459 33.8974C123.101 33.6961 122.825 33.4687 122.632 33.2152C122.439 32.9576 122.29 32.7443 122.185 32.5753H122.065V37.4773H120.64ZM122.04 29.3636C122.04 30.0639 122.143 30.6817 122.348 31.217C122.554 31.7482 122.853 32.1648 123.248 32.4666C123.642 32.7644 124.125 32.9134 124.697 32.9134C125.292 32.9134 125.789 32.7564 126.188 32.4425C126.59 32.1245 126.892 31.6979 127.093 31.1626C127.299 30.6233 127.401 30.0237 127.401 29.3636C127.401 28.7116 127.301 28.1241 127.099 27.6009C126.902 27.0736 126.602 26.6571 126.2 26.3512C125.801 26.0413 125.3 25.8864 124.697 25.8864C124.117 25.8864 123.63 26.0333 123.236 26.3271C122.841 26.6168 122.544 27.0233 122.342 27.5465C122.141 28.0657 122.04 28.6714 122.04 29.3636ZM133.728 34.2173C133.14 34.2173 132.607 34.1067 132.128 33.8853C131.649 33.6599 131.269 33.3359 130.987 32.9134C130.705 32.4867 130.565 31.9716 130.565 31.3679C130.565 30.8366 130.669 30.406 130.879 30.076C131.088 29.742 131.368 29.4804 131.718 29.2912C132.068 29.102 132.454 28.9612 132.877 28.8686C133.303 28.772 133.732 28.6955 134.163 28.6392C134.726 28.5668 135.183 28.5124 135.533 28.4762C135.887 28.436 136.145 28.3696 136.306 28.277C136.471 28.1844 136.553 28.0234 136.553 27.794V27.7457C136.553 27.1501 136.39 26.6873 136.064 26.3572C135.742 26.0272 135.253 25.8622 134.597 25.8622C133.917 25.8622 133.384 26.0111 132.998 26.3089C132.611 26.6068 132.339 26.9247 132.183 27.2628L130.83 26.7798C131.072 26.2164 131.394 25.7777 131.796 25.4638C132.203 25.1458 132.645 24.9245 133.124 24.7997C133.607 24.6709 134.082 24.6065 134.549 24.6065C134.847 24.6065 135.189 24.6428 135.575 24.7152C135.966 24.7836 136.342 24.9265 136.704 25.1438C137.07 25.3612 137.374 25.6892 137.616 26.1278C137.857 26.5665 137.978 27.1541 137.978 27.8906V34H136.553V32.7443H136.481C136.384 32.9455 136.223 33.1609 135.998 33.3903C135.772 33.6197 135.473 33.8149 135.098 33.9759C134.724 34.1368 134.267 34.2173 133.728 34.2173ZM133.945 32.9375C134.509 32.9375 134.984 32.8268 135.37 32.6055C135.76 32.3841 136.054 32.0984 136.251 31.7482C136.453 31.3981 136.553 31.0298 136.553 30.6435V29.3395C136.493 29.4119 136.36 29.4783 136.155 29.5387C135.954 29.5951 135.72 29.6454 135.455 29.6896C135.193 29.7299 134.937 29.7661 134.688 29.7983C134.442 29.8265 134.243 29.8506 134.09 29.8707C133.72 29.919 133.374 29.9975 133.052 30.1062C132.734 30.2108 132.476 30.3698 132.279 30.5831C132.086 30.7924 131.989 31.0781 131.989 31.4403C131.989 31.9354 132.172 32.3097 132.539 32.5632C132.909 32.8127 133.378 32.9375 133.945 32.9375ZM140.578 34V24.7273H141.955V26.1278H142.051C142.22 25.669 142.526 25.2968 142.969 25.011C143.412 24.7253 143.911 24.5824 144.466 24.5824C144.571 24.5824 144.702 24.5844 144.859 24.5884C145.016 24.5924 145.134 24.5985 145.215 24.6065V26.0554C145.166 26.0433 145.056 26.0252 144.883 26.0011C144.714 25.9729 144.535 25.9588 144.345 25.9588C143.895 25.9588 143.492 26.0534 143.138 26.2425C142.788 26.4277 142.51 26.6853 142.305 27.0153C142.104 27.3413 142.003 27.7135 142.003 28.1321V34H140.578ZM151.517 24.7273V25.9347H146.712V24.7273H151.517ZM148.112 22.5057H149.537V31.3438C149.537 31.7462 149.596 32.0481 149.712 32.2493C149.833 32.4465 149.986 32.5793 150.171 32.6477C150.36 32.7121 150.559 32.7443 150.769 32.7443C150.926 32.7443 151.054 32.7363 151.155 32.7202C151.256 32.7 151.336 32.6839 151.397 32.6719L151.686 33.9517C151.59 33.9879 151.455 34.0241 151.282 34.0604C151.109 34.1006 150.889 34.1207 150.624 34.1207C150.221 34.1207 149.827 34.0342 149.441 33.8612C149.058 33.6881 148.74 33.4245 148.487 33.0703C148.237 32.7161 148.112 32.2694 148.112 31.7301V22.5057ZM165.01 26.804L163.73 27.1662C163.65 26.9529 163.531 26.7456 163.374 26.5444C163.221 26.3391 163.012 26.1701 162.746 26.0373C162.48 25.9045 162.14 25.8381 161.726 25.8381C161.158 25.8381 160.685 25.9689 160.307 26.2305C159.933 26.488 159.746 26.8161 159.746 27.2145C159.746 27.5687 159.874 27.8484 160.132 28.0536C160.39 28.2589 160.792 28.4299 161.339 28.5668L162.716 28.9048C163.545 29.1061 164.163 29.4139 164.569 29.8285C164.976 30.239 165.179 30.7682 165.179 31.4162C165.179 31.9474 165.026 32.4223 164.72 32.8409C164.418 33.2595 163.996 33.5895 163.452 33.831C162.909 34.0724 162.277 34.1932 161.557 34.1932C160.611 34.1932 159.828 33.9879 159.208 33.5774C158.589 33.1669 158.196 32.5672 158.031 31.7784L159.383 31.4403C159.512 31.9394 159.756 32.3137 160.114 32.5632C160.476 32.8127 160.949 32.9375 161.533 32.9375C162.197 32.9375 162.724 32.7966 163.114 32.5149C163.509 32.2292 163.706 31.8871 163.706 31.4886C163.706 31.1667 163.593 30.897 163.368 30.6797C163.142 30.4583 162.796 30.2933 162.329 30.1847L160.784 29.8224C159.935 29.6212 159.311 29.3093 158.913 28.8867C158.518 28.4601 158.321 27.9268 158.321 27.2869C158.321 26.7637 158.468 26.3009 158.762 25.8984C159.059 25.496 159.464 25.18 159.975 24.9506C160.49 24.7212 161.074 24.6065 161.726 24.6065C162.643 24.6065 163.364 24.8078 163.887 25.2102C164.414 25.6127 164.789 26.1439 165.01 26.804ZM173.167 30.2088V24.7273H174.592V34H173.167V32.4304H173.071C172.853 32.9013 172.515 33.3017 172.056 33.6317C171.598 33.9577 171.018 34.1207 170.318 34.1207C169.738 34.1207 169.223 33.994 168.772 33.7404C168.322 33.4828 167.967 33.0965 167.71 32.5813C167.452 32.0621 167.324 31.4081 167.324 30.6193V24.7273H168.748V30.5227C168.748 31.1989 168.937 31.7382 169.316 32.1406C169.698 32.5431 170.185 32.7443 170.777 32.7443C171.131 32.7443 171.491 32.6538 171.857 32.4727C172.228 32.2915 172.537 32.0138 172.787 31.6396C173.04 31.2653 173.167 30.7884 173.167 30.2088ZM178.626 28.4219V34H177.201V24.7273H178.578V26.1761H178.699C178.916 25.7053 179.246 25.3269 179.689 25.0412C180.131 24.7514 180.703 24.6065 181.403 24.6065C182.031 24.6065 182.58 24.7353 183.051 24.9929C183.522 25.2464 183.888 25.6328 184.15 26.152C184.412 26.6671 184.542 27.3191 184.542 28.108V34H183.118V28.2045C183.118 27.4761 182.928 26.9086 182.55 26.5021C182.172 26.0916 181.653 25.8864 180.993 25.8864C180.538 25.8864 180.131 25.985 179.773 26.1822C179.419 26.3794 179.139 26.6671 178.934 27.0455C178.729 27.4238 178.626 27.8826 178.626 28.4219Z" fill="#224722"/>
<defs>
<clipPath id="clip0_1_122">
<rect width="32" height="32" fill="white" transform="translate(12 12)"/>
</clipPath>
</defs>
</svg>
