<svg width="30" height="30" viewBox="0 0 30 30" fill="none" xmlns="http://www.w3.org/2000/svg">
<path d="M14.667 8C12.8991 8.00053 11.2038 8.70298 9.95366 9.95295C8.7035 11.2029 8.0008 12.8981 8 14.666C8.0008 16.434 8.70346 18.1293 9.9536 19.3794C11.2037 20.6295 12.899 21.3322 14.667 21.333C16.4348 21.3322 18.1299 20.6297 19.38 19.3798C20.6302 18.1298 21.3329 16.4348 21.334 14.667C21.3332 12.899 20.6305 11.2037 19.3804 9.9536C18.1303 8.70346 16.435 8.0008 14.667 8ZM1.334 16H4C4.734 16 5.334 15.4 5.334 14.667C5.334 13.933 4.734 13.333 4 13.333H1.334C0.6 13.333 0 13.933 0 14.666C0 15.4 0.6 16 1.334 16ZM25.334 16H28C28.734 16 29.334 15.4 29.334 14.667C29.334 13.933 28.734 13.333 28 13.333H25.334C24.6 13.333 24 13.933 24 14.666C24 15.4 24.6 16 25.334 16ZM13.334 1.333V4C13.334 4.733 13.934 5.333 14.667 5.333C15.4 5.333 16 4.733 16 4V1.333C16 0.6 15.4 0 14.667 0C13.934 0 13.334 0.6 13.334 1.333ZM13.334 25.333V28C13.334 28.733 13.934 29.333 14.667 29.333C15.4 29.333 16 28.733 16 28V25.333C16 24.6 15.4 24 14.667 24C13.934 24 13.334 24.6 13.334 25.333ZM6.654 4.773C6.53065 4.64939 6.38413 4.55133 6.22283 4.48442C6.06153 4.41751 5.88862 4.38307 5.714 4.38307C5.53938 4.38307 5.36647 4.41751 5.20517 4.48442C5.04387 4.55133 4.89735 4.64939 4.774 4.773C4.254 5.293 4.254 6.147 4.774 6.653L6.187 8.067C6.707 8.587 7.56 8.587 8.067 8.067C8.574 7.547 8.587 6.693 8.067 6.187L6.654 4.773ZM23.147 21.267C23.0236 21.1434 22.8771 21.0453 22.7158 20.9784C22.5545 20.9115 22.3816 20.8771 22.207 20.8771C22.0324 20.8771 21.8595 20.9115 21.6982 20.9784C21.5369 21.0453 21.3904 21.1434 21.267 21.267C20.747 21.787 20.747 22.641 21.267 23.147L22.68 24.561C23.2 25.081 24.054 25.081 24.56 24.561C25.08 24.041 25.08 23.188 24.56 22.681L23.147 21.267ZM24.56 6.654C25.08 6.134 25.08 5.281 24.56 4.774C24.4366 4.6504 24.2901 4.55233 24.1288 4.48542C23.9675 4.41851 23.7946 4.38407 23.62 4.38407C23.4454 4.38407 23.2725 4.41851 23.1112 4.48542C22.9499 4.55233 22.8034 4.6504 22.68 4.774L21.267 6.187C20.747 6.707 20.747 7.56 21.267 8.067C21.787 8.573 22.64 8.587 23.147 8.067L24.56 6.653V6.654ZM8.067 23.147C8.587 22.627 8.587 21.773 8.067 21.267C7.94365 21.1434 7.79713 21.0453 7.63583 20.9784C7.47453 20.9115 7.30162 20.8771 7.127 20.8771C6.95238 20.8771 6.77947 20.9115 6.61817 20.9784C6.45687 21.0453 6.31035 21.1434 6.187 21.267L4.774 22.68C4.254 23.2 4.254 24.053 4.774 24.56C5.294 25.066 6.147 25.08 6.654 24.56L8.067 23.147Z" fill="#224722"/>
</svg>
