<svg width="24" height="22" viewBox="0 0 24 22" fill="none" xmlns="http://www.w3.org/2000/svg">
<path d="M20.0329 8.35208C19.9993 4.72087 23.0823 2.95423 23.2233 2.87202C21.4772 0.390011 18.771 0.050897 17.8199 0.0237828C15.547 -0.209474 13.3422 1.34991 12.1843 1.34991C11.0033 1.34991 9.22033 0.0463162 7.29856 0.0846971C4.82571 0.12184 2.51233 1.51779 1.24353 3.68545C-1.37504 8.10532 0.577928 14.6006 3.08656 18.1733C4.34149 19.9229 5.80789 21.8767 7.72731 21.8079C9.60513 21.7324 10.3065 20.6407 12.5726 20.6407C14.8178 20.6407 15.4764 21.8079 17.434 21.764C19.4492 21.7324 20.718 20.0064 21.9291 18.2409C23.3793 16.2354 23.9617 14.2604 23.9849 14.159C23.9374 14.1431 20.071 12.7045 20.0329 8.35208Z" fill="#224722"/>
</svg>
